M48
; DRILL file {KiCad (5.1.5)-3} date 18/02/2020 19:29:22
; FORMAT={-:-/ absolute / inch / decimal}
; #@! TF.CreationDate,2020-02-18T19:29:22+02:00
; #@! TF.GenerationSoftware,Kicad,Pcbnew,(5.1.5)-3
; #@! TF.FileFunction,Plated,1,2,PTH
FMAT,2
INCH
T1C0.0295
T2C0.0315
T3C0.0362
T4C0.0394
T5C0.0433
T6C0.0472
T7C0.0917
T8C0.1260
%
G90
G05
T1
X6.9Y-4.35
X6.9Y-4.4
X6.9Y-4.45
T2
X6.85Y-2.95
X6.85Y-3.35
X7.0567Y-3.75
X7.0567Y-3.85
X7.0567Y-3.95
X7.0567Y-4.05
X5.15Y-4.2
X5.15Y-4.6
X4.775Y-4.1713
X4.775Y-4.25
X7.1Y-4.2531
X7.1Y-4.45
X5.3Y-4.1
X5.3Y-4.5
X6.75Y-4.2031
X6.75Y-4.4
X5.5Y-4.2
X5.5Y-4.6
X5.0Y-4.1
X5.0Y-4.5
X5.5Y-2.95
X5.5Y-3.1469
X5.15Y-2.95
X5.15Y-3.35
X7.25Y-3.45
X7.4469Y-3.45
X7.05Y-3.05
X7.05Y-3.45
X6.85Y-3.45
X6.85Y-3.85
X5.1Y-2.7
X5.5Y-2.7
T3
X4.4713Y-4.1516
X4.4713Y-4.25
X4.55Y-4.1516
X4.55Y-4.25
T4
X5.7Y-2.85
X5.7Y-2.95
X5.7Y-3.05
X5.7Y-3.15
X5.7Y-3.25
X5.7Y-3.35
X5.7Y-3.45
X5.7Y-3.55
X5.7Y-3.65
X5.7Y-3.75
X5.7Y-3.85
X5.7Y-3.95
X5.7Y-4.05
X5.7Y-4.15
X5.7Y-4.25
X6.6Y-2.85
X6.6Y-2.95
X6.6Y-3.05
X6.6Y-3.15
X6.6Y-3.25
X6.6Y-3.35
X6.6Y-3.45
X6.6Y-3.55
X6.6Y-3.65
X6.6Y-3.75
X6.6Y-3.85
X6.6Y-3.95
X6.6Y-4.05
X6.6Y-4.15
X6.6Y-4.25
X4.4Y-3.6
X4.4Y-3.7
X4.4Y-3.8
X4.4Y-3.25
X4.4Y-3.35
X4.4Y-2.9
X4.4Y-3.0
T5
X4.95Y-3.9
X5.05Y-3.9
X5.15Y-3.9
X4.95Y-3.3
X4.95Y-3.6
X5.45Y-3.35
X5.45Y-3.45
X5.45Y-3.55
T6
X7.35Y-2.85
X7.35Y-2.95
X7.35Y-3.05
X7.35Y-3.15
X7.35Y-3.25
T7
X4.3646Y-3.9638
X4.3646Y-4.4378
T8
X4.3Y-2.7
X4.3Y-4.65
X8.05Y-2.7
X8.05Y-4.65
T0
M30
