G04 #@! TF.GenerationSoftware,KiCad,Pcbnew,(5.1.5)-3*
G04 #@! TF.CreationDate,2020-02-18T19:29:17+02:00*
G04 #@! TF.ProjectId,floraable,666c6f72-6161-4626-9c65-2e6b69636164,rev?*
G04 #@! TF.SameCoordinates,Original*
G04 #@! TF.FileFunction,Copper,L2,Bot*
G04 #@! TF.FilePolarity,Positive*
%FSLAX46Y46*%
G04 Gerber Fmt 4.6, Leading zero omitted, Abs format (unit mm)*
G04 Created by KiCad (PCBNEW (5.1.5)-3) date 2020-02-18 19:29:17*
%MOMM*%
%LPD*%
G04 APERTURE LIST*
%ADD10C,1.930400*%
%ADD11C,1.600000*%
%ADD12R,1.600000X1.600000*%
%ADD13O,2.200000X2.200000*%
%ADD14R,2.200000X2.200000*%
%ADD15R,1.500000X1.050000*%
%ADD16O,1.500000X1.050000*%
%ADD17O,1.905000X2.000000*%
%ADD18R,1.905000X2.000000*%
%ADD19O,2.000000X1.905000*%
%ADD20R,2.000000X1.905000*%
%ADD21R,2.800000X2.000000*%
%ADD22O,2.800000X2.000000*%
%ADD23O,1.600000X1.600000*%
%ADD24O,1.700000X1.700000*%
%ADD25R,1.700000X1.700000*%
%ADD26C,3.500000*%
%ADD27C,1.700000*%
%ADD28C,6.000001*%
%ADD29C,0.500000*%
%ADD30C,0.700000*%
%ADD31C,0.254000*%
G04 APERTURE END LIST*
D10*
X167640000Y-107950000D03*
X167640000Y-105410000D03*
X167640000Y-102870000D03*
X167640000Y-100330000D03*
X167640000Y-97790000D03*
X167640000Y-95250000D03*
X167640000Y-92710000D03*
X167640000Y-90170000D03*
X167640000Y-87630000D03*
X167640000Y-85090000D03*
X167640000Y-82550000D03*
X167640000Y-80010000D03*
X167640000Y-77470000D03*
X167640000Y-74930000D03*
X167640000Y-72390000D03*
X144780000Y-107950000D03*
X144780000Y-105410000D03*
X144780000Y-102870000D03*
X144780000Y-100330000D03*
X144780000Y-97790000D03*
X144780000Y-95250000D03*
X144780000Y-92710000D03*
X144780000Y-90170000D03*
X144780000Y-87630000D03*
X144780000Y-85090000D03*
X144780000Y-82550000D03*
X144780000Y-80010000D03*
X144780000Y-77470000D03*
X144780000Y-74930000D03*
X144780000Y-72390000D03*
D11*
X121285000Y-105950000D03*
D12*
X121285000Y-107950000D03*
D13*
X125730000Y-83820000D03*
D14*
X125730000Y-91440000D03*
D15*
X175260000Y-110490000D03*
D16*
X175260000Y-113030000D03*
X175260000Y-111760000D03*
D17*
X125730000Y-99060000D03*
X128270000Y-99060000D03*
D18*
X130810000Y-99060000D03*
D19*
X138430000Y-85090000D03*
X138430000Y-87630000D03*
D20*
X138430000Y-90170000D03*
D21*
X186690000Y-72390000D03*
D22*
X186690000Y-74930000D03*
X186690000Y-82550000D03*
X186690000Y-80010000D03*
X186690000Y-77470000D03*
D23*
X134620000Y-114300000D03*
D11*
X134620000Y-104140000D03*
D23*
X127000000Y-104140000D03*
D11*
X127000000Y-114300000D03*
D23*
X139700000Y-116840000D03*
D11*
X139700000Y-106680000D03*
D23*
X130810000Y-106680000D03*
D11*
X130810000Y-116840000D03*
D23*
X173990000Y-97790000D03*
D11*
X173990000Y-87630000D03*
D23*
X173990000Y-74930000D03*
D11*
X173990000Y-85090000D03*
D23*
X179070000Y-77470000D03*
D11*
X179070000Y-87630000D03*
D23*
X130810000Y-85090000D03*
D11*
X130810000Y-74930000D03*
D23*
X129540000Y-68580000D03*
D11*
X139700000Y-68580000D03*
X189150000Y-87630000D03*
X184150000Y-87630000D03*
X180340000Y-108030000D03*
X180340000Y-113030000D03*
X171450000Y-106760000D03*
X171450000Y-111760000D03*
X139700000Y-79930000D03*
X139700000Y-74930000D03*
D24*
X111760000Y-73660000D03*
D25*
X111760000Y-76200000D03*
D26*
X110860000Y-100680000D03*
X110860000Y-112720000D03*
D27*
X113570000Y-107950000D03*
X113570000Y-105450000D03*
X115570000Y-105450000D03*
D25*
X115570000Y-107950000D03*
D11*
X179240000Y-102870000D03*
X179240000Y-100330000D03*
X179240000Y-97790000D03*
D12*
X179240000Y-95250000D03*
D24*
X111760000Y-91440000D03*
X111760000Y-93980000D03*
D25*
X111760000Y-96520000D03*
D24*
X111760000Y-82550000D03*
D25*
X111760000Y-85090000D03*
D28*
X204470000Y-118110000D03*
X204470000Y-68580000D03*
X109220000Y-118110000D03*
X109220000Y-68580000D03*
D29*
X130810000Y-74930000D02*
X139700000Y-74930000D01*
X139700000Y-74930000D02*
X144780000Y-74930000D01*
X129540000Y-76200000D02*
X130810000Y-74930000D01*
X111760000Y-76200000D02*
X129540000Y-76200000D01*
D30*
X111760000Y-91440000D02*
X111760000Y-85090000D01*
X143510000Y-109220000D02*
X144780000Y-107950000D01*
X134620000Y-109220000D02*
X143510000Y-109220000D01*
X118110000Y-107950000D02*
X125730000Y-107950000D01*
X127000000Y-109220000D02*
X134620000Y-109220000D01*
X125730000Y-107950000D02*
X127000000Y-109220000D01*
X137160000Y-96520000D02*
X132080000Y-91440000D01*
X137160000Y-106680000D02*
X137160000Y-96520000D01*
X134620000Y-109220000D02*
X137160000Y-106680000D01*
X132080000Y-91440000D02*
X111760000Y-91440000D01*
X163830000Y-119380000D02*
X171450000Y-111760000D01*
X171450000Y-111760000D02*
X175260000Y-111760000D01*
X118110000Y-107950000D02*
X115570000Y-107950000D01*
X115570000Y-107950000D02*
X116840000Y-109220000D01*
X116840000Y-109220000D02*
X127000000Y-119380000D01*
X127000000Y-119380000D02*
X163830000Y-119380000D01*
X175260000Y-113030000D02*
X180340000Y-113030000D01*
X186690000Y-99060000D02*
X182880000Y-95250000D01*
X182880000Y-113030000D02*
X186690000Y-109220000D01*
X180340000Y-113030000D02*
X182880000Y-113030000D01*
X182880000Y-95250000D02*
X179240000Y-95250000D01*
X186690000Y-109220000D02*
X186690000Y-99060000D01*
X179240000Y-87800000D02*
X179070000Y-87630000D01*
X179240000Y-95250000D02*
X179240000Y-87800000D01*
X179070000Y-87630000D02*
X184150000Y-87630000D01*
X179070000Y-87630000D02*
X173990000Y-87630000D01*
X173990000Y-87630000D02*
X173990000Y-85090000D01*
X186690000Y-85090000D02*
X186690000Y-82550000D01*
X184150000Y-87630000D02*
X186690000Y-85090000D01*
X186690000Y-82550000D02*
X189230000Y-82550000D01*
X187960000Y-68580000D02*
X139700000Y-68580000D01*
X190500000Y-71120000D02*
X187960000Y-68580000D01*
X190500000Y-81280000D02*
X190500000Y-71120000D01*
X189230000Y-82550000D02*
X190500000Y-81280000D01*
D29*
X124460000Y-82550000D02*
X125730000Y-83820000D01*
X111760000Y-82550000D02*
X124460000Y-82550000D01*
X129540000Y-87630000D02*
X125730000Y-83820000D01*
X138430000Y-87630000D02*
X129540000Y-87630000D01*
X138430000Y-90170000D02*
X139700000Y-91440000D01*
X139700000Y-91440000D02*
X139700000Y-106680000D01*
X134620000Y-101417500D02*
X134620000Y-103008630D01*
X130810000Y-99060000D02*
X132262500Y-99060000D01*
X132262500Y-99060000D02*
X134620000Y-101417500D01*
X134620000Y-103008630D02*
X134620000Y-104140000D01*
X186690000Y-77470000D02*
X179070000Y-77470000D01*
X179070000Y-77470000D02*
X167640000Y-77470000D01*
X186690000Y-74930000D02*
X173990000Y-74930000D01*
X173990000Y-74930000D02*
X167640000Y-74930000D01*
X179240000Y-97790000D02*
X173990000Y-97790000D01*
X173990000Y-97790000D02*
X167640000Y-97790000D01*
X146050000Y-114300000D02*
X167640000Y-92710000D01*
X134620000Y-114300000D02*
X146050000Y-114300000D01*
X127000000Y-114300000D02*
X134620000Y-114300000D01*
X139700000Y-116840000D02*
X146050000Y-116840000D01*
X146050000Y-116840000D02*
X167640000Y-95250000D01*
X130810000Y-116840000D02*
X139700000Y-116840000D01*
X124460000Y-73660000D02*
X129540000Y-68580000D01*
X111760000Y-73660000D02*
X124460000Y-73660000D01*
X128270000Y-97560000D02*
X128270000Y-99060000D01*
X111760000Y-96520000D02*
X127230000Y-96520000D01*
X127230000Y-96520000D02*
X128270000Y-97560000D01*
D31*
G36*
X202152823Y-65756511D02*
G01*
X201646511Y-66262823D01*
X201248705Y-66858182D01*
X200974691Y-67519710D01*
X200835000Y-68221984D01*
X200835000Y-68938016D01*
X200974691Y-69640290D01*
X201248705Y-70301818D01*
X201646511Y-70897177D01*
X202152823Y-71403489D01*
X202748182Y-71801295D01*
X203409710Y-72075309D01*
X204111984Y-72215000D01*
X204828016Y-72215000D01*
X205530290Y-72075309D01*
X206191818Y-71801295D01*
X206787177Y-71403489D01*
X207293489Y-70897177D01*
X207620001Y-70408517D01*
X207620000Y-116281482D01*
X207293489Y-115792823D01*
X206787177Y-115286511D01*
X206191818Y-114888705D01*
X205530290Y-114614691D01*
X204828016Y-114475000D01*
X204111984Y-114475000D01*
X203409710Y-114614691D01*
X202748182Y-114888705D01*
X202152823Y-115286511D01*
X201646511Y-115792823D01*
X201248705Y-116388182D01*
X200974691Y-117049710D01*
X200835000Y-117751984D01*
X200835000Y-118468016D01*
X200974691Y-119170290D01*
X201248705Y-119831818D01*
X201646511Y-120427177D01*
X202152823Y-120933489D01*
X202641481Y-121260000D01*
X111048519Y-121260000D01*
X111537177Y-120933489D01*
X112043489Y-120427177D01*
X112441295Y-119831818D01*
X112715309Y-119170290D01*
X112855000Y-118468016D01*
X112855000Y-117751984D01*
X112715309Y-117049710D01*
X112441295Y-116388182D01*
X112043489Y-115792823D01*
X111537177Y-115286511D01*
X111226374Y-115078839D01*
X111359811Y-115063842D01*
X111807468Y-114921297D01*
X112163927Y-114730766D01*
X112350003Y-114389609D01*
X110860000Y-112899605D01*
X109369997Y-114389609D01*
X109416571Y-114475000D01*
X108861984Y-114475000D01*
X108159710Y-114614691D01*
X107498182Y-114888705D01*
X106902823Y-115286511D01*
X106396511Y-115792823D01*
X106070000Y-116281481D01*
X106070000Y-112752946D01*
X108463687Y-112752946D01*
X108516158Y-113219811D01*
X108658703Y-113667468D01*
X108849234Y-114023927D01*
X109190391Y-114210003D01*
X110680395Y-112720000D01*
X111039605Y-112720000D01*
X112529609Y-114210003D01*
X112870766Y-114023927D01*
X113086513Y-113606591D01*
X113216696Y-113155185D01*
X113256313Y-112687054D01*
X113203842Y-112220189D01*
X113061297Y-111772532D01*
X112870766Y-111416073D01*
X112529609Y-111229997D01*
X111039605Y-112720000D01*
X110680395Y-112720000D01*
X109190391Y-111229997D01*
X108849234Y-111416073D01*
X108633487Y-111833409D01*
X108503304Y-112284815D01*
X108463687Y-112752946D01*
X106070000Y-112752946D01*
X106070000Y-111050391D01*
X109369997Y-111050391D01*
X110860000Y-112540395D01*
X112350003Y-111050391D01*
X112163927Y-110709234D01*
X111746591Y-110493487D01*
X111295185Y-110363304D01*
X110827054Y-110323687D01*
X110360189Y-110376158D01*
X109912532Y-110518703D01*
X109556073Y-110709234D01*
X109369997Y-111050391D01*
X106070000Y-111050391D01*
X106070000Y-108018531D01*
X112079389Y-108018531D01*
X112121401Y-108308019D01*
X112219081Y-108583747D01*
X112292528Y-108721157D01*
X112541603Y-108798792D01*
X113390395Y-107950000D01*
X112541603Y-107101208D01*
X112292528Y-107178843D01*
X112166629Y-107442883D01*
X112094661Y-107726411D01*
X112079389Y-108018531D01*
X106070000Y-108018531D01*
X106070000Y-103790960D01*
X125608091Y-103790960D01*
X125729376Y-104013000D01*
X126873000Y-104013000D01*
X126873000Y-102870085D01*
X127127000Y-102870085D01*
X127127000Y-104013000D01*
X128270624Y-104013000D01*
X128391909Y-103790960D01*
X128297070Y-103526119D01*
X128152385Y-103284869D01*
X127963414Y-103076481D01*
X127737420Y-102908963D01*
X127483087Y-102788754D01*
X127349039Y-102748096D01*
X127127000Y-102870085D01*
X126873000Y-102870085D01*
X126650961Y-102748096D01*
X126516913Y-102788754D01*
X126262580Y-102908963D01*
X126036586Y-103076481D01*
X125847615Y-103284869D01*
X125702930Y-103526119D01*
X125608091Y-103790960D01*
X106070000Y-103790960D01*
X106070000Y-102349609D01*
X109369997Y-102349609D01*
X109556073Y-102690766D01*
X109973409Y-102906513D01*
X110424815Y-103036696D01*
X110892946Y-103076313D01*
X111359811Y-103023842D01*
X111807468Y-102881297D01*
X112163927Y-102690766D01*
X112350003Y-102349609D01*
X110860000Y-100859605D01*
X109369997Y-102349609D01*
X106070000Y-102349609D01*
X106070000Y-100712946D01*
X108463687Y-100712946D01*
X108516158Y-101179811D01*
X108658703Y-101627468D01*
X108849234Y-101983927D01*
X109190391Y-102170003D01*
X110680395Y-100680000D01*
X111039605Y-100680000D01*
X112529609Y-102170003D01*
X112870766Y-101983927D01*
X113086513Y-101566591D01*
X113216696Y-101115185D01*
X113256313Y-100647054D01*
X113203842Y-100180189D01*
X113061297Y-99732532D01*
X112901656Y-99433863D01*
X124177622Y-99433863D01*
X124271121Y-99730446D01*
X124420684Y-100003089D01*
X124620563Y-100241315D01*
X124863077Y-100435969D01*
X125138906Y-100579571D01*
X125357020Y-100650563D01*
X125603000Y-100530594D01*
X125603000Y-99187000D01*
X124304430Y-99187000D01*
X124177622Y-99433863D01*
X112901656Y-99433863D01*
X112870766Y-99376073D01*
X112529609Y-99189997D01*
X111039605Y-100680000D01*
X110680395Y-100680000D01*
X109190391Y-99189997D01*
X108849234Y-99376073D01*
X108633487Y-99793409D01*
X108503304Y-100244815D01*
X108463687Y-100712946D01*
X106070000Y-100712946D01*
X106070000Y-99010391D01*
X109369997Y-99010391D01*
X110860000Y-100500395D01*
X112350003Y-99010391D01*
X112173147Y-98686137D01*
X124177622Y-98686137D01*
X124304430Y-98933000D01*
X125603000Y-98933000D01*
X125603000Y-97589406D01*
X125357020Y-97469437D01*
X125138906Y-97540429D01*
X124863077Y-97684031D01*
X124620563Y-97878685D01*
X124420684Y-98116911D01*
X124271121Y-98389554D01*
X124177622Y-98686137D01*
X112173147Y-98686137D01*
X112163927Y-98669234D01*
X111746591Y-98453487D01*
X111295185Y-98323304D01*
X110827054Y-98283687D01*
X110360189Y-98336158D01*
X109912532Y-98478703D01*
X109556073Y-98669234D01*
X109369997Y-99010391D01*
X106070000Y-99010391D01*
X106070000Y-84240000D01*
X110271928Y-84240000D01*
X110271928Y-85940000D01*
X110284188Y-86064482D01*
X110320498Y-86184180D01*
X110379463Y-86294494D01*
X110458815Y-86391185D01*
X110555506Y-86470537D01*
X110665820Y-86529502D01*
X110775001Y-86562622D01*
X110775000Y-90324893D01*
X110606525Y-90493368D01*
X110444010Y-90736589D01*
X110332068Y-91006842D01*
X110275000Y-91293740D01*
X110275000Y-91586260D01*
X110332068Y-91873158D01*
X110444010Y-92143411D01*
X110606525Y-92386632D01*
X110813368Y-92593475D01*
X110987760Y-92710000D01*
X110813368Y-92826525D01*
X110606525Y-93033368D01*
X110444010Y-93276589D01*
X110332068Y-93546842D01*
X110275000Y-93833740D01*
X110275000Y-94126260D01*
X110332068Y-94413158D01*
X110444010Y-94683411D01*
X110606525Y-94926632D01*
X110738380Y-95058487D01*
X110665820Y-95080498D01*
X110555506Y-95139463D01*
X110458815Y-95218815D01*
X110379463Y-95315506D01*
X110320498Y-95425820D01*
X110284188Y-95545518D01*
X110271928Y-95670000D01*
X110271928Y-97370000D01*
X110284188Y-97494482D01*
X110320498Y-97614180D01*
X110379463Y-97724494D01*
X110458815Y-97821185D01*
X110555506Y-97900537D01*
X110665820Y-97959502D01*
X110785518Y-97995812D01*
X110910000Y-98008072D01*
X112610000Y-98008072D01*
X112734482Y-97995812D01*
X112854180Y-97959502D01*
X112964494Y-97900537D01*
X113061185Y-97821185D01*
X113140537Y-97724494D01*
X113199502Y-97614180D01*
X113235812Y-97494482D01*
X113244625Y-97405000D01*
X126863422Y-97405000D01*
X127252392Y-97793971D01*
X127142037Y-97884537D01*
X126994837Y-98063899D01*
X126839437Y-97878685D01*
X126596923Y-97684031D01*
X126321094Y-97540429D01*
X126102980Y-97469437D01*
X125857000Y-97589406D01*
X125857000Y-98933000D01*
X125877000Y-98933000D01*
X125877000Y-99187000D01*
X125857000Y-99187000D01*
X125857000Y-100530594D01*
X126102980Y-100650563D01*
X126321094Y-100579571D01*
X126596923Y-100435969D01*
X126839437Y-100241315D01*
X126994838Y-100056100D01*
X127142037Y-100235463D01*
X127383765Y-100433845D01*
X127659551Y-100581255D01*
X127958796Y-100672030D01*
X128270000Y-100702681D01*
X128581203Y-100672030D01*
X128880448Y-100581255D01*
X129156234Y-100433845D01*
X129282095Y-100330553D01*
X129326963Y-100414494D01*
X129406315Y-100511185D01*
X129503006Y-100590537D01*
X129613320Y-100649502D01*
X129733018Y-100685812D01*
X129857500Y-100698072D01*
X131762500Y-100698072D01*
X131886982Y-100685812D01*
X132006680Y-100649502D01*
X132116994Y-100590537D01*
X132213685Y-100511185D01*
X132293037Y-100414494D01*
X132318249Y-100367327D01*
X133735000Y-101784079D01*
X133735001Y-102965144D01*
X133735000Y-102965154D01*
X133735000Y-103005479D01*
X133705241Y-103025363D01*
X133505363Y-103225241D01*
X133348320Y-103460273D01*
X133240147Y-103721426D01*
X133185000Y-103998665D01*
X133185000Y-104281335D01*
X133240147Y-104558574D01*
X133348320Y-104819727D01*
X133505363Y-105054759D01*
X133705241Y-105254637D01*
X133940273Y-105411680D01*
X134201426Y-105519853D01*
X134478665Y-105575000D01*
X134761335Y-105575000D01*
X135038574Y-105519853D01*
X135299727Y-105411680D01*
X135534759Y-105254637D01*
X135734637Y-105054759D01*
X135891680Y-104819727D01*
X135999853Y-104558574D01*
X136055000Y-104281335D01*
X136055000Y-103998665D01*
X135999853Y-103721426D01*
X135891680Y-103460273D01*
X135734637Y-103225241D01*
X135534759Y-103025363D01*
X135505000Y-103005479D01*
X135505000Y-101460965D01*
X135509281Y-101417499D01*
X135505000Y-101374033D01*
X135505000Y-101374023D01*
X135492195Y-101244010D01*
X135441589Y-101077187D01*
X135359411Y-100923441D01*
X135248817Y-100788683D01*
X135215050Y-100760971D01*
X132919034Y-98464956D01*
X132891317Y-98431183D01*
X132756559Y-98320589D01*
X132602813Y-98238411D01*
X132435990Y-98187805D01*
X132400572Y-98184317D01*
X132400572Y-98060000D01*
X132388312Y-97935518D01*
X132352002Y-97815820D01*
X132293037Y-97705506D01*
X132213685Y-97608815D01*
X132116994Y-97529463D01*
X132006680Y-97470498D01*
X131886982Y-97434188D01*
X131762500Y-97421928D01*
X129857500Y-97421928D01*
X129733018Y-97434188D01*
X129613320Y-97470498D01*
X129503006Y-97529463D01*
X129406315Y-97608815D01*
X129326963Y-97705506D01*
X129282095Y-97789446D01*
X129156235Y-97686155D01*
X129155000Y-97685495D01*
X129155000Y-97603465D01*
X129159281Y-97559999D01*
X129155000Y-97516533D01*
X129155000Y-97516523D01*
X129142195Y-97386510D01*
X129091589Y-97219687D01*
X129009411Y-97065941D01*
X128966832Y-97014059D01*
X128926532Y-96964953D01*
X128926530Y-96964951D01*
X128898817Y-96931183D01*
X128865050Y-96903471D01*
X127886534Y-95924956D01*
X127858817Y-95891183D01*
X127724059Y-95780589D01*
X127570313Y-95698411D01*
X127403490Y-95647805D01*
X127273477Y-95635000D01*
X127273469Y-95635000D01*
X127230000Y-95630719D01*
X127186531Y-95635000D01*
X113244625Y-95635000D01*
X113235812Y-95545518D01*
X113199502Y-95425820D01*
X113140537Y-95315506D01*
X113061185Y-95218815D01*
X112964494Y-95139463D01*
X112854180Y-95080498D01*
X112781620Y-95058487D01*
X112913475Y-94926632D01*
X113075990Y-94683411D01*
X113187932Y-94413158D01*
X113245000Y-94126260D01*
X113245000Y-93833740D01*
X113187932Y-93546842D01*
X113075990Y-93276589D01*
X112913475Y-93033368D01*
X112706632Y-92826525D01*
X112532240Y-92710000D01*
X112706632Y-92593475D01*
X112875107Y-92425000D01*
X123991928Y-92425000D01*
X123991928Y-92540000D01*
X124004188Y-92664482D01*
X124040498Y-92784180D01*
X124099463Y-92894494D01*
X124178815Y-92991185D01*
X124275506Y-93070537D01*
X124385820Y-93129502D01*
X124505518Y-93165812D01*
X124630000Y-93178072D01*
X126830000Y-93178072D01*
X126954482Y-93165812D01*
X127074180Y-93129502D01*
X127184494Y-93070537D01*
X127281185Y-92991185D01*
X127360537Y-92894494D01*
X127419502Y-92784180D01*
X127455812Y-92664482D01*
X127468072Y-92540000D01*
X127468072Y-92425000D01*
X131672000Y-92425000D01*
X136175001Y-96928002D01*
X136175000Y-106272000D01*
X134212000Y-108235000D01*
X127408000Y-108235000D01*
X126460716Y-107287716D01*
X126429870Y-107250130D01*
X126279884Y-107127040D01*
X126108767Y-107035576D01*
X126087221Y-107029040D01*
X129418091Y-107029040D01*
X129512930Y-107293881D01*
X129657615Y-107535131D01*
X129846586Y-107743519D01*
X130072580Y-107911037D01*
X130326913Y-108031246D01*
X130460961Y-108071904D01*
X130683000Y-107949915D01*
X130683000Y-106807000D01*
X130937000Y-106807000D01*
X130937000Y-107949915D01*
X131159039Y-108071904D01*
X131293087Y-108031246D01*
X131547420Y-107911037D01*
X131773414Y-107743519D01*
X131962385Y-107535131D01*
X132107070Y-107293881D01*
X132201909Y-107029040D01*
X132080624Y-106807000D01*
X130937000Y-106807000D01*
X130683000Y-106807000D01*
X129539376Y-106807000D01*
X129418091Y-107029040D01*
X126087221Y-107029040D01*
X125923094Y-106979253D01*
X125778380Y-106965000D01*
X125730000Y-106960235D01*
X125681620Y-106965000D01*
X122692454Y-106965000D01*
X122674502Y-106905820D01*
X122615537Y-106795506D01*
X122536185Y-106698815D01*
X122523242Y-106688193D01*
X122642571Y-106436004D01*
X122668901Y-106330960D01*
X129418091Y-106330960D01*
X129539376Y-106553000D01*
X130683000Y-106553000D01*
X130683000Y-105410085D01*
X130937000Y-105410085D01*
X130937000Y-106553000D01*
X132080624Y-106553000D01*
X132201909Y-106330960D01*
X132107070Y-106066119D01*
X131962385Y-105824869D01*
X131773414Y-105616481D01*
X131547420Y-105448963D01*
X131293087Y-105328754D01*
X131159039Y-105288096D01*
X130937000Y-105410085D01*
X130683000Y-105410085D01*
X130460961Y-105288096D01*
X130326913Y-105328754D01*
X130072580Y-105448963D01*
X129846586Y-105616481D01*
X129657615Y-105824869D01*
X129512930Y-106066119D01*
X129418091Y-106330960D01*
X122668901Y-106330960D01*
X122711300Y-106161816D01*
X122725217Y-105879488D01*
X122683787Y-105599870D01*
X122588603Y-105333708D01*
X122521671Y-105208486D01*
X122277702Y-105136903D01*
X121464605Y-105950000D01*
X121478748Y-105964143D01*
X121299143Y-106143748D01*
X121285000Y-106129605D01*
X121270858Y-106143748D01*
X121091253Y-105964143D01*
X121105395Y-105950000D01*
X120292298Y-105136903D01*
X120048329Y-105208486D01*
X119927429Y-105463996D01*
X119858700Y-105738184D01*
X119844783Y-106020512D01*
X119886213Y-106300130D01*
X119981397Y-106566292D01*
X120046616Y-106688309D01*
X120033815Y-106698815D01*
X119954463Y-106795506D01*
X119895498Y-106905820D01*
X119877546Y-106965000D01*
X117042621Y-106965000D01*
X117009502Y-106855820D01*
X116950537Y-106745506D01*
X116871185Y-106648815D01*
X116774494Y-106569463D01*
X116664180Y-106510498D01*
X116622310Y-106497797D01*
X116723475Y-106396632D01*
X116885990Y-106153411D01*
X116997932Y-105883158D01*
X117055000Y-105596260D01*
X117055000Y-105303740D01*
X116997932Y-105016842D01*
X116973269Y-104957298D01*
X120471903Y-104957298D01*
X121285000Y-105770395D01*
X122098097Y-104957298D01*
X122026514Y-104713329D01*
X121771004Y-104592429D01*
X121496816Y-104523700D01*
X121214488Y-104509783D01*
X120934870Y-104551213D01*
X120668708Y-104646397D01*
X120543486Y-104713329D01*
X120471903Y-104957298D01*
X116973269Y-104957298D01*
X116885990Y-104746589D01*
X116723475Y-104503368D01*
X116709147Y-104489040D01*
X125608091Y-104489040D01*
X125702930Y-104753881D01*
X125847615Y-104995131D01*
X126036586Y-105203519D01*
X126262580Y-105371037D01*
X126516913Y-105491246D01*
X126650961Y-105531904D01*
X126873000Y-105409915D01*
X126873000Y-104267000D01*
X127127000Y-104267000D01*
X127127000Y-105409915D01*
X127349039Y-105531904D01*
X127483087Y-105491246D01*
X127737420Y-105371037D01*
X127963414Y-105203519D01*
X128152385Y-104995131D01*
X128297070Y-104753881D01*
X128391909Y-104489040D01*
X128270624Y-104267000D01*
X127127000Y-104267000D01*
X126873000Y-104267000D01*
X125729376Y-104267000D01*
X125608091Y-104489040D01*
X116709147Y-104489040D01*
X116516632Y-104296525D01*
X116273411Y-104134010D01*
X116003158Y-104022068D01*
X115716260Y-103965000D01*
X115423740Y-103965000D01*
X115136842Y-104022068D01*
X114866589Y-104134010D01*
X114623368Y-104296525D01*
X114570000Y-104349893D01*
X114516632Y-104296525D01*
X114273411Y-104134010D01*
X114003158Y-104022068D01*
X113716260Y-103965000D01*
X113423740Y-103965000D01*
X113136842Y-104022068D01*
X112866589Y-104134010D01*
X112623368Y-104296525D01*
X112416525Y-104503368D01*
X112254010Y-104746589D01*
X112142068Y-105016842D01*
X112085000Y-105303740D01*
X112085000Y-105596260D01*
X112142068Y-105883158D01*
X112254010Y-106153411D01*
X112416525Y-106396632D01*
X112623368Y-106603475D01*
X112786410Y-106712416D01*
X112721208Y-106921603D01*
X113570000Y-107770395D01*
X113584143Y-107756253D01*
X113763748Y-107935858D01*
X113749605Y-107950000D01*
X113763748Y-107964143D01*
X113584143Y-108143748D01*
X113570000Y-108129605D01*
X112721208Y-108978397D01*
X112798843Y-109227472D01*
X113062883Y-109353371D01*
X113346411Y-109425339D01*
X113638531Y-109440611D01*
X113928019Y-109398599D01*
X114203747Y-109300919D01*
X114279850Y-109260241D01*
X114365506Y-109330537D01*
X114475820Y-109389502D01*
X114595518Y-109425812D01*
X114720000Y-109438072D01*
X115665072Y-109438072D01*
X116109290Y-109882290D01*
X126269289Y-120042290D01*
X126300130Y-120079870D01*
X126337709Y-120110710D01*
X126450116Y-120202960D01*
X126621233Y-120294424D01*
X126806906Y-120350747D01*
X127000000Y-120369765D01*
X127048380Y-120365000D01*
X163781620Y-120365000D01*
X163830000Y-120369765D01*
X163878380Y-120365000D01*
X164023094Y-120350747D01*
X164208767Y-120294424D01*
X164379884Y-120202960D01*
X164529870Y-120079870D01*
X164560716Y-120042284D01*
X171408000Y-113195000D01*
X171591335Y-113195000D01*
X171868574Y-113139853D01*
X172129727Y-113031680D01*
X172364759Y-112874637D01*
X172494396Y-112745000D01*
X173909258Y-112745000D01*
X173891785Y-112802600D01*
X173869388Y-113030000D01*
X173891785Y-113257400D01*
X173958115Y-113476060D01*
X174065829Y-113677579D01*
X174210788Y-113854212D01*
X174387421Y-113999171D01*
X174588940Y-114106885D01*
X174807600Y-114173215D01*
X174978021Y-114190000D01*
X175541979Y-114190000D01*
X175712400Y-114173215D01*
X175931060Y-114106885D01*
X176102965Y-114015000D01*
X179295604Y-114015000D01*
X179425241Y-114144637D01*
X179660273Y-114301680D01*
X179921426Y-114409853D01*
X180198665Y-114465000D01*
X180481335Y-114465000D01*
X180758574Y-114409853D01*
X181019727Y-114301680D01*
X181254759Y-114144637D01*
X181384396Y-114015000D01*
X182831620Y-114015000D01*
X182880000Y-114019765D01*
X182928380Y-114015000D01*
X183073094Y-114000747D01*
X183258767Y-113944424D01*
X183429884Y-113852960D01*
X183579870Y-113729870D01*
X183610716Y-113692284D01*
X187352292Y-109950709D01*
X187389870Y-109919870D01*
X187512960Y-109769884D01*
X187604424Y-109598767D01*
X187660747Y-109413094D01*
X187675000Y-109268380D01*
X187675000Y-109268379D01*
X187679765Y-109220000D01*
X187675000Y-109171620D01*
X187675000Y-99108380D01*
X187679765Y-99060000D01*
X187660747Y-98866906D01*
X187604424Y-98681233D01*
X187512960Y-98510116D01*
X187449011Y-98432194D01*
X187389870Y-98360130D01*
X187352290Y-98329289D01*
X183610716Y-94587716D01*
X183579870Y-94550130D01*
X183429884Y-94427040D01*
X183258767Y-94335576D01*
X183073094Y-94279253D01*
X182928380Y-94265000D01*
X182880000Y-94260235D01*
X182831620Y-94265000D01*
X180647454Y-94265000D01*
X180629502Y-94205820D01*
X180570537Y-94095506D01*
X180491185Y-93998815D01*
X180394494Y-93919463D01*
X180284180Y-93860498D01*
X180225000Y-93842546D01*
X180225000Y-88615000D01*
X183105604Y-88615000D01*
X183235241Y-88744637D01*
X183470273Y-88901680D01*
X183731426Y-89009853D01*
X184008665Y-89065000D01*
X184291335Y-89065000D01*
X184568574Y-89009853D01*
X184829727Y-88901680D01*
X185064759Y-88744637D01*
X185186694Y-88622702D01*
X188336903Y-88622702D01*
X188408486Y-88866671D01*
X188663996Y-88987571D01*
X188938184Y-89056300D01*
X189220512Y-89070217D01*
X189500130Y-89028787D01*
X189766292Y-88933603D01*
X189891514Y-88866671D01*
X189963097Y-88622702D01*
X189150000Y-87809605D01*
X188336903Y-88622702D01*
X185186694Y-88622702D01*
X185264637Y-88544759D01*
X185421680Y-88309727D01*
X185529853Y-88048574D01*
X185585000Y-87771335D01*
X185585000Y-87700512D01*
X187709783Y-87700512D01*
X187751213Y-87980130D01*
X187846397Y-88246292D01*
X187913329Y-88371514D01*
X188157298Y-88443097D01*
X188970395Y-87630000D01*
X189329605Y-87630000D01*
X190142702Y-88443097D01*
X190386671Y-88371514D01*
X190507571Y-88116004D01*
X190576300Y-87841816D01*
X190590217Y-87559488D01*
X190548787Y-87279870D01*
X190453603Y-87013708D01*
X190386671Y-86888486D01*
X190142702Y-86816903D01*
X189329605Y-87630000D01*
X188970395Y-87630000D01*
X188157298Y-86816903D01*
X187913329Y-86888486D01*
X187792429Y-87143996D01*
X187723700Y-87418184D01*
X187709783Y-87700512D01*
X185585000Y-87700512D01*
X185585000Y-87588000D01*
X186535702Y-86637298D01*
X188336903Y-86637298D01*
X189150000Y-87450395D01*
X189963097Y-86637298D01*
X189891514Y-86393329D01*
X189636004Y-86272429D01*
X189361816Y-86203700D01*
X189079488Y-86189783D01*
X188799870Y-86231213D01*
X188533708Y-86326397D01*
X188408486Y-86393329D01*
X188336903Y-86637298D01*
X186535702Y-86637298D01*
X187352284Y-85820716D01*
X187389870Y-85789870D01*
X187512960Y-85639884D01*
X187604424Y-85468767D01*
X187660747Y-85283094D01*
X187675000Y-85138380D01*
X187675000Y-85138379D01*
X187679765Y-85090001D01*
X187675000Y-85041620D01*
X187675000Y-84081113D01*
X187718715Y-84067852D01*
X188002752Y-83916031D01*
X188251714Y-83711714D01*
X188396739Y-83535000D01*
X189181620Y-83535000D01*
X189230000Y-83539765D01*
X189278380Y-83535000D01*
X189423094Y-83520747D01*
X189608767Y-83464424D01*
X189779884Y-83372960D01*
X189929870Y-83249870D01*
X189960716Y-83212284D01*
X191162284Y-82010716D01*
X191199870Y-81979870D01*
X191322960Y-81829884D01*
X191414424Y-81658767D01*
X191470747Y-81473094D01*
X191470747Y-81473093D01*
X191489765Y-81280001D01*
X191485000Y-81231621D01*
X191485000Y-71168377D01*
X191489765Y-71119999D01*
X191481443Y-71035506D01*
X191470747Y-70926906D01*
X191414424Y-70741233D01*
X191322960Y-70570116D01*
X191199870Y-70420130D01*
X191162284Y-70389284D01*
X188690716Y-67917716D01*
X188659870Y-67880130D01*
X188509884Y-67757040D01*
X188338767Y-67665576D01*
X188153094Y-67609253D01*
X188008380Y-67595000D01*
X187960000Y-67590235D01*
X187911620Y-67595000D01*
X140744396Y-67595000D01*
X140614759Y-67465363D01*
X140379727Y-67308320D01*
X140118574Y-67200147D01*
X139841335Y-67145000D01*
X139558665Y-67145000D01*
X139281426Y-67200147D01*
X139020273Y-67308320D01*
X138785241Y-67465363D01*
X138585363Y-67665241D01*
X138428320Y-67900273D01*
X138320147Y-68161426D01*
X138265000Y-68438665D01*
X138265000Y-68721335D01*
X138320147Y-68998574D01*
X138428320Y-69259727D01*
X138585363Y-69494759D01*
X138785241Y-69694637D01*
X139020273Y-69851680D01*
X139281426Y-69959853D01*
X139558665Y-70015000D01*
X139841335Y-70015000D01*
X140118574Y-69959853D01*
X140379727Y-69851680D01*
X140614759Y-69694637D01*
X140744396Y-69565000D01*
X187552000Y-69565000D01*
X189515001Y-71528001D01*
X189515000Y-80872000D01*
X188822000Y-81565000D01*
X188396739Y-81565000D01*
X188251714Y-81388286D01*
X188121858Y-81281716D01*
X188335922Y-81076317D01*
X188520010Y-80812761D01*
X188649144Y-80518355D01*
X188680124Y-80390434D01*
X188560777Y-80137000D01*
X186817000Y-80137000D01*
X186817000Y-80157000D01*
X186563000Y-80157000D01*
X186563000Y-80137000D01*
X184819223Y-80137000D01*
X184699876Y-80390434D01*
X184730856Y-80518355D01*
X184859990Y-80812761D01*
X185044078Y-81076317D01*
X185258142Y-81281716D01*
X185128286Y-81388286D01*
X184923969Y-81637248D01*
X184772148Y-81921285D01*
X184678657Y-82229484D01*
X184647089Y-82550000D01*
X184678657Y-82870516D01*
X184772148Y-83178715D01*
X184923969Y-83462752D01*
X185128286Y-83711714D01*
X185377248Y-83916031D01*
X185661285Y-84067852D01*
X185705000Y-84081113D01*
X185705000Y-84682000D01*
X184192000Y-86195000D01*
X184008665Y-86195000D01*
X183731426Y-86250147D01*
X183470273Y-86358320D01*
X183235241Y-86515363D01*
X183105604Y-86645000D01*
X180114396Y-86645000D01*
X179984759Y-86515363D01*
X179749727Y-86358320D01*
X179488574Y-86250147D01*
X179211335Y-86195000D01*
X178928665Y-86195000D01*
X178651426Y-86250147D01*
X178390273Y-86358320D01*
X178155241Y-86515363D01*
X178025604Y-86645000D01*
X175034396Y-86645000D01*
X174975000Y-86585604D01*
X174975000Y-86134396D01*
X175104637Y-86004759D01*
X175261680Y-85769727D01*
X175369853Y-85508574D01*
X175425000Y-85231335D01*
X175425000Y-84948665D01*
X175369853Y-84671426D01*
X175261680Y-84410273D01*
X175104637Y-84175241D01*
X174904759Y-83975363D01*
X174669727Y-83818320D01*
X174408574Y-83710147D01*
X174131335Y-83655000D01*
X173848665Y-83655000D01*
X173571426Y-83710147D01*
X173310273Y-83818320D01*
X173075241Y-83975363D01*
X172875363Y-84175241D01*
X172718320Y-84410273D01*
X172610147Y-84671426D01*
X172555000Y-84948665D01*
X172555000Y-85231335D01*
X172610147Y-85508574D01*
X172718320Y-85769727D01*
X172875363Y-86004759D01*
X173005001Y-86134397D01*
X173005000Y-86585604D01*
X172875363Y-86715241D01*
X172718320Y-86950273D01*
X172610147Y-87211426D01*
X172555000Y-87488665D01*
X172555000Y-87771335D01*
X172610147Y-88048574D01*
X172718320Y-88309727D01*
X172875363Y-88544759D01*
X173075241Y-88744637D01*
X173310273Y-88901680D01*
X173571426Y-89009853D01*
X173848665Y-89065000D01*
X174131335Y-89065000D01*
X174408574Y-89009853D01*
X174669727Y-88901680D01*
X174904759Y-88744637D01*
X175034396Y-88615000D01*
X178025604Y-88615000D01*
X178155241Y-88744637D01*
X178255001Y-88811294D01*
X178255000Y-93842546D01*
X178195820Y-93860498D01*
X178085506Y-93919463D01*
X177988815Y-93998815D01*
X177909463Y-94095506D01*
X177850498Y-94205820D01*
X177814188Y-94325518D01*
X177801928Y-94450000D01*
X177801928Y-96050000D01*
X177814188Y-96174482D01*
X177850498Y-96294180D01*
X177909463Y-96404494D01*
X177988815Y-96501185D01*
X178085506Y-96580537D01*
X178195820Y-96639502D01*
X178315518Y-96675812D01*
X178323961Y-96676643D01*
X178125363Y-96875241D01*
X178105479Y-96905000D01*
X175124521Y-96905000D01*
X175104637Y-96875241D01*
X174904759Y-96675363D01*
X174669727Y-96518320D01*
X174408574Y-96410147D01*
X174131335Y-96355000D01*
X173848665Y-96355000D01*
X173571426Y-96410147D01*
X173310273Y-96518320D01*
X173075241Y-96675363D01*
X172875363Y-96875241D01*
X172855479Y-96905000D01*
X168973206Y-96905000D01*
X168882957Y-96769932D01*
X168660068Y-96547043D01*
X168619595Y-96520000D01*
X168660068Y-96492957D01*
X168882957Y-96270068D01*
X169058079Y-96007979D01*
X169178706Y-95716761D01*
X169240200Y-95407606D01*
X169240200Y-95092394D01*
X169178706Y-94783239D01*
X169058079Y-94492021D01*
X168882957Y-94229932D01*
X168660068Y-94007043D01*
X168619595Y-93980000D01*
X168660068Y-93952957D01*
X168882957Y-93730068D01*
X169058079Y-93467979D01*
X169178706Y-93176761D01*
X169240200Y-92867606D01*
X169240200Y-92552394D01*
X169178706Y-92243239D01*
X169058079Y-91952021D01*
X168882957Y-91689932D01*
X168660068Y-91467043D01*
X168619595Y-91440000D01*
X168660068Y-91412957D01*
X168882957Y-91190068D01*
X169058079Y-90927979D01*
X169178706Y-90636761D01*
X169240200Y-90327606D01*
X169240200Y-90012394D01*
X169178706Y-89703239D01*
X169058079Y-89412021D01*
X168882957Y-89149932D01*
X168660068Y-88927043D01*
X168534899Y-88843408D01*
X168570989Y-88740594D01*
X167640000Y-87809605D01*
X166709011Y-88740594D01*
X166745101Y-88843408D01*
X166619932Y-88927043D01*
X166397043Y-89149932D01*
X166221921Y-89412021D01*
X166101294Y-89703239D01*
X166039800Y-90012394D01*
X166039800Y-90327606D01*
X166101294Y-90636761D01*
X166221921Y-90927979D01*
X166397043Y-91190068D01*
X166619932Y-91412957D01*
X166660405Y-91440000D01*
X166619932Y-91467043D01*
X166397043Y-91689932D01*
X166221921Y-91952021D01*
X166101294Y-92243239D01*
X166039800Y-92552394D01*
X166039800Y-92867606D01*
X166071491Y-93026930D01*
X145683422Y-113415000D01*
X135754521Y-113415000D01*
X135734637Y-113385241D01*
X135534759Y-113185363D01*
X135299727Y-113028320D01*
X135038574Y-112920147D01*
X134761335Y-112865000D01*
X134478665Y-112865000D01*
X134201426Y-112920147D01*
X133940273Y-113028320D01*
X133705241Y-113185363D01*
X133505363Y-113385241D01*
X133485479Y-113415000D01*
X128134521Y-113415000D01*
X128114637Y-113385241D01*
X127914759Y-113185363D01*
X127679727Y-113028320D01*
X127418574Y-112920147D01*
X127141335Y-112865000D01*
X126858665Y-112865000D01*
X126581426Y-112920147D01*
X126320273Y-113028320D01*
X126085241Y-113185363D01*
X125885363Y-113385241D01*
X125728320Y-113620273D01*
X125620147Y-113881426D01*
X125565000Y-114158665D01*
X125565000Y-114441335D01*
X125620147Y-114718574D01*
X125728320Y-114979727D01*
X125885363Y-115214759D01*
X126085241Y-115414637D01*
X126320273Y-115571680D01*
X126581426Y-115679853D01*
X126858665Y-115735000D01*
X127141335Y-115735000D01*
X127418574Y-115679853D01*
X127679727Y-115571680D01*
X127914759Y-115414637D01*
X128114637Y-115214759D01*
X128134521Y-115185000D01*
X133485479Y-115185000D01*
X133505363Y-115214759D01*
X133705241Y-115414637D01*
X133940273Y-115571680D01*
X134201426Y-115679853D01*
X134478665Y-115735000D01*
X134761335Y-115735000D01*
X135038574Y-115679853D01*
X135299727Y-115571680D01*
X135534759Y-115414637D01*
X135734637Y-115214759D01*
X135754521Y-115185000D01*
X146006531Y-115185000D01*
X146050000Y-115189281D01*
X146093469Y-115185000D01*
X146093477Y-115185000D01*
X146223490Y-115172195D01*
X146390313Y-115121589D01*
X146544059Y-115039411D01*
X146678817Y-114928817D01*
X146706534Y-114895044D01*
X166065379Y-95536200D01*
X166071491Y-95566930D01*
X145683422Y-115955000D01*
X140834521Y-115955000D01*
X140814637Y-115925241D01*
X140614759Y-115725363D01*
X140379727Y-115568320D01*
X140118574Y-115460147D01*
X139841335Y-115405000D01*
X139558665Y-115405000D01*
X139281426Y-115460147D01*
X139020273Y-115568320D01*
X138785241Y-115725363D01*
X138585363Y-115925241D01*
X138565479Y-115955000D01*
X131944521Y-115955000D01*
X131924637Y-115925241D01*
X131724759Y-115725363D01*
X131489727Y-115568320D01*
X131228574Y-115460147D01*
X130951335Y-115405000D01*
X130668665Y-115405000D01*
X130391426Y-115460147D01*
X130130273Y-115568320D01*
X129895241Y-115725363D01*
X129695363Y-115925241D01*
X129538320Y-116160273D01*
X129430147Y-116421426D01*
X129375000Y-116698665D01*
X129375000Y-116981335D01*
X129430147Y-117258574D01*
X129538320Y-117519727D01*
X129695363Y-117754759D01*
X129895241Y-117954637D01*
X130130273Y-118111680D01*
X130391426Y-118219853D01*
X130668665Y-118275000D01*
X130951335Y-118275000D01*
X131228574Y-118219853D01*
X131489727Y-118111680D01*
X131724759Y-117954637D01*
X131924637Y-117754759D01*
X131944521Y-117725000D01*
X138565479Y-117725000D01*
X138585363Y-117754759D01*
X138785241Y-117954637D01*
X139020273Y-118111680D01*
X139281426Y-118219853D01*
X139558665Y-118275000D01*
X139841335Y-118275000D01*
X140118574Y-118219853D01*
X140379727Y-118111680D01*
X140614759Y-117954637D01*
X140814637Y-117754759D01*
X140834521Y-117725000D01*
X146006531Y-117725000D01*
X146050000Y-117729281D01*
X146093469Y-117725000D01*
X146093477Y-117725000D01*
X146223490Y-117712195D01*
X146390313Y-117661589D01*
X146544059Y-117579411D01*
X146678817Y-117468817D01*
X146706534Y-117435044D01*
X154176578Y-109965000D01*
X173871928Y-109965000D01*
X173875000Y-110204250D01*
X174033750Y-110363000D01*
X175133000Y-110363000D01*
X175133000Y-109488750D01*
X175387000Y-109488750D01*
X175387000Y-110363000D01*
X176486250Y-110363000D01*
X176645000Y-110204250D01*
X176648072Y-109965000D01*
X176635812Y-109840518D01*
X176599502Y-109720820D01*
X176540537Y-109610506D01*
X176461185Y-109513815D01*
X176364494Y-109434463D01*
X176254180Y-109375498D01*
X176134482Y-109339188D01*
X176010000Y-109326928D01*
X175545750Y-109330000D01*
X175387000Y-109488750D01*
X175133000Y-109488750D01*
X174974250Y-109330000D01*
X174510000Y-109326928D01*
X174385518Y-109339188D01*
X174265820Y-109375498D01*
X174155506Y-109434463D01*
X174058815Y-109513815D01*
X173979463Y-109610506D01*
X173920498Y-109720820D01*
X173884188Y-109840518D01*
X173871928Y-109965000D01*
X154176578Y-109965000D01*
X156349184Y-107792394D01*
X166039800Y-107792394D01*
X166039800Y-108107606D01*
X166101294Y-108416761D01*
X166221921Y-108707979D01*
X166397043Y-108970068D01*
X166619932Y-109192957D01*
X166882021Y-109368079D01*
X167173239Y-109488706D01*
X167482394Y-109550200D01*
X167797606Y-109550200D01*
X168106761Y-109488706D01*
X168397979Y-109368079D01*
X168660068Y-109192957D01*
X168830323Y-109022702D01*
X179526903Y-109022702D01*
X179598486Y-109266671D01*
X179853996Y-109387571D01*
X180128184Y-109456300D01*
X180410512Y-109470217D01*
X180690130Y-109428787D01*
X180956292Y-109333603D01*
X181081514Y-109266671D01*
X181153097Y-109022702D01*
X180340000Y-108209605D01*
X179526903Y-109022702D01*
X168830323Y-109022702D01*
X168882957Y-108970068D01*
X169058079Y-108707979D01*
X169178706Y-108416761D01*
X169240200Y-108107606D01*
X169240200Y-107792394D01*
X169232305Y-107752702D01*
X170636903Y-107752702D01*
X170708486Y-107996671D01*
X170963996Y-108117571D01*
X171238184Y-108186300D01*
X171520512Y-108200217D01*
X171800130Y-108158787D01*
X171963083Y-108100512D01*
X178899783Y-108100512D01*
X178941213Y-108380130D01*
X179036397Y-108646292D01*
X179103329Y-108771514D01*
X179347298Y-108843097D01*
X180160395Y-108030000D01*
X180519605Y-108030000D01*
X181332702Y-108843097D01*
X181576671Y-108771514D01*
X181697571Y-108516004D01*
X181766300Y-108241816D01*
X181780217Y-107959488D01*
X181738787Y-107679870D01*
X181643603Y-107413708D01*
X181576671Y-107288486D01*
X181332702Y-107216903D01*
X180519605Y-108030000D01*
X180160395Y-108030000D01*
X179347298Y-107216903D01*
X179103329Y-107288486D01*
X178982429Y-107543996D01*
X178913700Y-107818184D01*
X178899783Y-108100512D01*
X171963083Y-108100512D01*
X172066292Y-108063603D01*
X172191514Y-107996671D01*
X172263097Y-107752702D01*
X171450000Y-106939605D01*
X170636903Y-107752702D01*
X169232305Y-107752702D01*
X169178706Y-107483239D01*
X169058079Y-107192021D01*
X168882957Y-106929932D01*
X168783537Y-106830512D01*
X170009783Y-106830512D01*
X170051213Y-107110130D01*
X170146397Y-107376292D01*
X170213329Y-107501514D01*
X170457298Y-107573097D01*
X171270395Y-106760000D01*
X171629605Y-106760000D01*
X172442702Y-107573097D01*
X172686671Y-107501514D01*
X172807571Y-107246004D01*
X172859886Y-107037298D01*
X179526903Y-107037298D01*
X180340000Y-107850395D01*
X181153097Y-107037298D01*
X181081514Y-106793329D01*
X180826004Y-106672429D01*
X180551816Y-106603700D01*
X180269488Y-106589783D01*
X179989870Y-106631213D01*
X179723708Y-106726397D01*
X179598486Y-106793329D01*
X179526903Y-107037298D01*
X172859886Y-107037298D01*
X172876300Y-106971816D01*
X172890217Y-106689488D01*
X172848787Y-106409870D01*
X172753603Y-106143708D01*
X172686671Y-106018486D01*
X172442702Y-105946903D01*
X171629605Y-106760000D01*
X171270395Y-106760000D01*
X170457298Y-105946903D01*
X170213329Y-106018486D01*
X170092429Y-106273996D01*
X170023700Y-106548184D01*
X170009783Y-106830512D01*
X168783537Y-106830512D01*
X168660068Y-106707043D01*
X168534899Y-106623408D01*
X168570989Y-106520594D01*
X167640000Y-105589605D01*
X166709011Y-106520594D01*
X166745101Y-106623408D01*
X166619932Y-106707043D01*
X166397043Y-106929932D01*
X166221921Y-107192021D01*
X166101294Y-107483239D01*
X166039800Y-107792394D01*
X156349184Y-107792394D01*
X158667607Y-105473971D01*
X166033330Y-105473971D01*
X166076682Y-105786188D01*
X166180112Y-106083948D01*
X166268562Y-106249428D01*
X166529406Y-106340989D01*
X167460395Y-105410000D01*
X167819605Y-105410000D01*
X168750594Y-106340989D01*
X169011438Y-106249428D01*
X169148851Y-105965744D01*
X169200523Y-105767298D01*
X170636903Y-105767298D01*
X171450000Y-106580395D01*
X172263097Y-105767298D01*
X172191514Y-105523329D01*
X171936004Y-105402429D01*
X171661816Y-105333700D01*
X171379488Y-105319783D01*
X171099870Y-105361213D01*
X170833708Y-105456397D01*
X170708486Y-105523329D01*
X170636903Y-105767298D01*
X169200523Y-105767298D01*
X169228279Y-105660704D01*
X169246670Y-105346029D01*
X169203318Y-105033812D01*
X169099888Y-104736052D01*
X169011438Y-104570572D01*
X168750594Y-104479011D01*
X167819605Y-105410000D01*
X167460395Y-105410000D01*
X166529406Y-104479011D01*
X166268562Y-104570572D01*
X166131149Y-104854256D01*
X166051721Y-105159296D01*
X166033330Y-105473971D01*
X158667607Y-105473971D01*
X166065379Y-98076200D01*
X166101294Y-98256761D01*
X166221921Y-98547979D01*
X166397043Y-98810068D01*
X166619932Y-99032957D01*
X166660405Y-99060000D01*
X166619932Y-99087043D01*
X166397043Y-99309932D01*
X166221921Y-99572021D01*
X166101294Y-99863239D01*
X166039800Y-100172394D01*
X166039800Y-100487606D01*
X166101294Y-100796761D01*
X166221921Y-101087979D01*
X166397043Y-101350068D01*
X166619932Y-101572957D01*
X166660405Y-101600000D01*
X166619932Y-101627043D01*
X166397043Y-101849932D01*
X166221921Y-102112021D01*
X166101294Y-102403239D01*
X166039800Y-102712394D01*
X166039800Y-103027606D01*
X166101294Y-103336761D01*
X166221921Y-103627979D01*
X166397043Y-103890068D01*
X166619932Y-104112957D01*
X166745101Y-104196592D01*
X166709011Y-104299406D01*
X167640000Y-105230395D01*
X168570989Y-104299406D01*
X168534899Y-104196592D01*
X168660068Y-104112957D01*
X168882957Y-103890068D01*
X168901242Y-103862702D01*
X178426903Y-103862702D01*
X178498486Y-104106671D01*
X178753996Y-104227571D01*
X179028184Y-104296300D01*
X179310512Y-104310217D01*
X179590130Y-104268787D01*
X179856292Y-104173603D01*
X179981514Y-104106671D01*
X180053097Y-103862702D01*
X179240000Y-103049605D01*
X178426903Y-103862702D01*
X168901242Y-103862702D01*
X169058079Y-103627979D01*
X169178706Y-103336761D01*
X169240200Y-103027606D01*
X169240200Y-102940512D01*
X177799783Y-102940512D01*
X177841213Y-103220130D01*
X177936397Y-103486292D01*
X178003329Y-103611514D01*
X178247298Y-103683097D01*
X179060395Y-102870000D01*
X179419605Y-102870000D01*
X180232702Y-103683097D01*
X180476671Y-103611514D01*
X180597571Y-103356004D01*
X180666300Y-103081816D01*
X180680217Y-102799488D01*
X180638787Y-102519870D01*
X180543603Y-102253708D01*
X180476671Y-102128486D01*
X180232702Y-102056903D01*
X179419605Y-102870000D01*
X179060395Y-102870000D01*
X178247298Y-102056903D01*
X178003329Y-102128486D01*
X177882429Y-102383996D01*
X177813700Y-102658184D01*
X177799783Y-102940512D01*
X169240200Y-102940512D01*
X169240200Y-102712394D01*
X169178706Y-102403239D01*
X169058079Y-102112021D01*
X168882957Y-101849932D01*
X168660068Y-101627043D01*
X168619595Y-101600000D01*
X168660068Y-101572957D01*
X168882957Y-101350068D01*
X169058079Y-101087979D01*
X169178706Y-100796761D01*
X169240200Y-100487606D01*
X169240200Y-100172394D01*
X169178706Y-99863239D01*
X169058079Y-99572021D01*
X168882957Y-99309932D01*
X168660068Y-99087043D01*
X168619595Y-99060000D01*
X168660068Y-99032957D01*
X168882957Y-98810068D01*
X168973206Y-98675000D01*
X172855479Y-98675000D01*
X172875363Y-98704759D01*
X173075241Y-98904637D01*
X173310273Y-99061680D01*
X173571426Y-99169853D01*
X173848665Y-99225000D01*
X174131335Y-99225000D01*
X174408574Y-99169853D01*
X174669727Y-99061680D01*
X174904759Y-98904637D01*
X175104637Y-98704759D01*
X175124521Y-98675000D01*
X178105479Y-98675000D01*
X178125363Y-98704759D01*
X178325241Y-98904637D01*
X178557759Y-99060000D01*
X178325241Y-99215363D01*
X178125363Y-99415241D01*
X177968320Y-99650273D01*
X177860147Y-99911426D01*
X177805000Y-100188665D01*
X177805000Y-100471335D01*
X177860147Y-100748574D01*
X177968320Y-101009727D01*
X178125363Y-101244759D01*
X178325241Y-101444637D01*
X178559128Y-101600915D01*
X178498486Y-101633329D01*
X178426903Y-101877298D01*
X179240000Y-102690395D01*
X180053097Y-101877298D01*
X179981514Y-101633329D01*
X179917008Y-101602806D01*
X179919727Y-101601680D01*
X180154759Y-101444637D01*
X180354637Y-101244759D01*
X180511680Y-101009727D01*
X180619853Y-100748574D01*
X180675000Y-100471335D01*
X180675000Y-100188665D01*
X180619853Y-99911426D01*
X180511680Y-99650273D01*
X180354637Y-99415241D01*
X180154759Y-99215363D01*
X179922241Y-99060000D01*
X180154759Y-98904637D01*
X180354637Y-98704759D01*
X180511680Y-98469727D01*
X180619853Y-98208574D01*
X180675000Y-97931335D01*
X180675000Y-97648665D01*
X180619853Y-97371426D01*
X180511680Y-97110273D01*
X180354637Y-96875241D01*
X180156039Y-96676643D01*
X180164482Y-96675812D01*
X180284180Y-96639502D01*
X180394494Y-96580537D01*
X180491185Y-96501185D01*
X180570537Y-96404494D01*
X180629502Y-96294180D01*
X180647454Y-96235000D01*
X182472000Y-96235000D01*
X185705001Y-99468002D01*
X185705000Y-108811999D01*
X182472000Y-112045000D01*
X181384396Y-112045000D01*
X181254759Y-111915363D01*
X181019727Y-111758320D01*
X180758574Y-111650147D01*
X180481335Y-111595000D01*
X180198665Y-111595000D01*
X179921426Y-111650147D01*
X179660273Y-111758320D01*
X179425241Y-111915363D01*
X179295604Y-112045000D01*
X176610742Y-112045000D01*
X176628215Y-111987400D01*
X176650612Y-111760000D01*
X176628215Y-111532600D01*
X176564907Y-111323902D01*
X176599502Y-111259180D01*
X176635812Y-111139482D01*
X176648072Y-111015000D01*
X176645000Y-110775750D01*
X176486250Y-110617000D01*
X175713109Y-110617000D01*
X175712400Y-110616785D01*
X175541979Y-110600000D01*
X174978021Y-110600000D01*
X174807600Y-110616785D01*
X174806891Y-110617000D01*
X174033750Y-110617000D01*
X173875750Y-110775000D01*
X172494396Y-110775000D01*
X172364759Y-110645363D01*
X172129727Y-110488320D01*
X171868574Y-110380147D01*
X171591335Y-110325000D01*
X171308665Y-110325000D01*
X171031426Y-110380147D01*
X170770273Y-110488320D01*
X170535241Y-110645363D01*
X170335363Y-110845241D01*
X170178320Y-111080273D01*
X170070147Y-111341426D01*
X170015000Y-111618665D01*
X170015000Y-111802000D01*
X163422000Y-118395000D01*
X127408001Y-118395000D01*
X117948000Y-108935000D01*
X119877546Y-108935000D01*
X119895498Y-108994180D01*
X119954463Y-109104494D01*
X120033815Y-109201185D01*
X120130506Y-109280537D01*
X120240820Y-109339502D01*
X120360518Y-109375812D01*
X120485000Y-109388072D01*
X122085000Y-109388072D01*
X122209482Y-109375812D01*
X122329180Y-109339502D01*
X122439494Y-109280537D01*
X122536185Y-109201185D01*
X122615537Y-109104494D01*
X122674502Y-108994180D01*
X122692454Y-108935000D01*
X125322000Y-108935000D01*
X126269284Y-109882284D01*
X126300130Y-109919870D01*
X126450116Y-110042960D01*
X126621233Y-110134424D01*
X126763691Y-110177638D01*
X126806905Y-110190747D01*
X126999999Y-110209765D01*
X127048379Y-110205000D01*
X134571620Y-110205000D01*
X134620000Y-110209765D01*
X134668380Y-110205000D01*
X143461620Y-110205000D01*
X143510000Y-110209765D01*
X143558380Y-110205000D01*
X143703094Y-110190747D01*
X143888767Y-110134424D01*
X144059884Y-110042960D01*
X144209870Y-109919870D01*
X144240716Y-109882284D01*
X144581028Y-109541972D01*
X144622394Y-109550200D01*
X144937606Y-109550200D01*
X145246761Y-109488706D01*
X145537979Y-109368079D01*
X145800068Y-109192957D01*
X146022957Y-108970068D01*
X146198079Y-108707979D01*
X146318706Y-108416761D01*
X146380200Y-108107606D01*
X146380200Y-107792394D01*
X146318706Y-107483239D01*
X146198079Y-107192021D01*
X146022957Y-106929932D01*
X145800068Y-106707043D01*
X145674899Y-106623408D01*
X145710989Y-106520594D01*
X144780000Y-105589605D01*
X143849011Y-106520594D01*
X143885101Y-106623408D01*
X143759932Y-106707043D01*
X143537043Y-106929932D01*
X143361921Y-107192021D01*
X143241294Y-107483239D01*
X143179800Y-107792394D01*
X143179800Y-108107606D01*
X143188028Y-108148972D01*
X143102000Y-108235000D01*
X136998000Y-108235000D01*
X137822284Y-107410716D01*
X137859870Y-107379870D01*
X137982960Y-107229884D01*
X138074424Y-107058767D01*
X138130747Y-106873094D01*
X138145000Y-106728380D01*
X138145000Y-106728379D01*
X138149765Y-106680001D01*
X138145000Y-106631623D01*
X138145000Y-96568380D01*
X138149765Y-96520000D01*
X138130747Y-96326906D01*
X138074424Y-96141233D01*
X137982960Y-95970116D01*
X137859870Y-95820130D01*
X137822290Y-95789289D01*
X132810716Y-90777716D01*
X132779870Y-90740130D01*
X132629884Y-90617040D01*
X132458767Y-90525576D01*
X132273094Y-90469253D01*
X132128380Y-90455000D01*
X132080000Y-90450235D01*
X132031620Y-90455000D01*
X127468072Y-90455000D01*
X127468072Y-90340000D01*
X127455812Y-90215518D01*
X127419502Y-90095820D01*
X127360537Y-89985506D01*
X127281185Y-89888815D01*
X127184494Y-89809463D01*
X127074180Y-89750498D01*
X126954482Y-89714188D01*
X126830000Y-89701928D01*
X124630000Y-89701928D01*
X124505518Y-89714188D01*
X124385820Y-89750498D01*
X124275506Y-89809463D01*
X124178815Y-89888815D01*
X124099463Y-89985506D01*
X124040498Y-90095820D01*
X124004188Y-90215518D01*
X123991928Y-90340000D01*
X123991928Y-90455000D01*
X112875107Y-90455000D01*
X112745000Y-90324893D01*
X112745000Y-86562621D01*
X112854180Y-86529502D01*
X112964494Y-86470537D01*
X113061185Y-86391185D01*
X113140537Y-86294494D01*
X113199502Y-86184180D01*
X113235812Y-86064482D01*
X113248072Y-85940000D01*
X113248072Y-84240000D01*
X113235812Y-84115518D01*
X113199502Y-83995820D01*
X113140537Y-83885506D01*
X113061185Y-83788815D01*
X112964494Y-83709463D01*
X112854180Y-83650498D01*
X112781620Y-83628487D01*
X112913475Y-83496632D01*
X112954656Y-83435000D01*
X124037591Y-83435000D01*
X123995000Y-83649117D01*
X123995000Y-83990883D01*
X124061675Y-84326081D01*
X124192463Y-84641831D01*
X124382337Y-84925998D01*
X124624002Y-85167663D01*
X124908169Y-85357537D01*
X125223919Y-85488325D01*
X125559117Y-85555000D01*
X125900883Y-85555000D01*
X126161568Y-85503147D01*
X128883470Y-88225049D01*
X128911183Y-88258817D01*
X128944951Y-88286530D01*
X128944953Y-88286532D01*
X129045941Y-88369411D01*
X129199686Y-88451589D01*
X129258493Y-88469428D01*
X129366510Y-88502195D01*
X129496523Y-88515000D01*
X129496531Y-88515000D01*
X129540000Y-88519281D01*
X129583469Y-88515000D01*
X137055495Y-88515000D01*
X137056155Y-88516235D01*
X137159446Y-88642095D01*
X137075506Y-88686963D01*
X136978815Y-88766315D01*
X136899463Y-88863006D01*
X136840498Y-88973320D01*
X136804188Y-89093018D01*
X136791928Y-89217500D01*
X136791928Y-91122500D01*
X136804188Y-91246982D01*
X136840498Y-91366680D01*
X136899463Y-91476994D01*
X136978815Y-91573685D01*
X137075506Y-91653037D01*
X137185820Y-91712002D01*
X137305518Y-91748312D01*
X137430000Y-91760572D01*
X138768993Y-91760572D01*
X138815000Y-91806579D01*
X138815001Y-105545478D01*
X138785241Y-105565363D01*
X138585363Y-105765241D01*
X138428320Y-106000273D01*
X138320147Y-106261426D01*
X138265000Y-106538665D01*
X138265000Y-106821335D01*
X138320147Y-107098574D01*
X138428320Y-107359727D01*
X138585363Y-107594759D01*
X138785241Y-107794637D01*
X139020273Y-107951680D01*
X139281426Y-108059853D01*
X139558665Y-108115000D01*
X139841335Y-108115000D01*
X140118574Y-108059853D01*
X140379727Y-107951680D01*
X140614759Y-107794637D01*
X140814637Y-107594759D01*
X140971680Y-107359727D01*
X141079853Y-107098574D01*
X141135000Y-106821335D01*
X141135000Y-106538665D01*
X141079853Y-106261426D01*
X140971680Y-106000273D01*
X140814637Y-105765241D01*
X140614759Y-105565363D01*
X140585000Y-105545479D01*
X140585000Y-105473971D01*
X143173330Y-105473971D01*
X143216682Y-105786188D01*
X143320112Y-106083948D01*
X143408562Y-106249428D01*
X143669406Y-106340989D01*
X144600395Y-105410000D01*
X144959605Y-105410000D01*
X145890594Y-106340989D01*
X146151438Y-106249428D01*
X146288851Y-105965744D01*
X146368279Y-105660704D01*
X146386670Y-105346029D01*
X146343318Y-105033812D01*
X146239888Y-104736052D01*
X146151438Y-104570572D01*
X145890594Y-104479011D01*
X144959605Y-105410000D01*
X144600395Y-105410000D01*
X143669406Y-104479011D01*
X143408562Y-104570572D01*
X143271149Y-104854256D01*
X143191721Y-105159296D01*
X143173330Y-105473971D01*
X140585000Y-105473971D01*
X140585000Y-97632394D01*
X143179800Y-97632394D01*
X143179800Y-97947606D01*
X143241294Y-98256761D01*
X143361921Y-98547979D01*
X143537043Y-98810068D01*
X143759932Y-99032957D01*
X143800405Y-99060000D01*
X143759932Y-99087043D01*
X143537043Y-99309932D01*
X143361921Y-99572021D01*
X143241294Y-99863239D01*
X143179800Y-100172394D01*
X143179800Y-100487606D01*
X143241294Y-100796761D01*
X143361921Y-101087979D01*
X143537043Y-101350068D01*
X143759932Y-101572957D01*
X143800405Y-101600000D01*
X143759932Y-101627043D01*
X143537043Y-101849932D01*
X143361921Y-102112021D01*
X143241294Y-102403239D01*
X143179800Y-102712394D01*
X143179800Y-103027606D01*
X143241294Y-103336761D01*
X143361921Y-103627979D01*
X143537043Y-103890068D01*
X143759932Y-104112957D01*
X143885101Y-104196592D01*
X143849011Y-104299406D01*
X144780000Y-105230395D01*
X145710989Y-104299406D01*
X145674899Y-104196592D01*
X145800068Y-104112957D01*
X146022957Y-103890068D01*
X146198079Y-103627979D01*
X146318706Y-103336761D01*
X146380200Y-103027606D01*
X146380200Y-102712394D01*
X146318706Y-102403239D01*
X146198079Y-102112021D01*
X146022957Y-101849932D01*
X145800068Y-101627043D01*
X145759595Y-101600000D01*
X145800068Y-101572957D01*
X146022957Y-101350068D01*
X146198079Y-101087979D01*
X146318706Y-100796761D01*
X146380200Y-100487606D01*
X146380200Y-100172394D01*
X146318706Y-99863239D01*
X146198079Y-99572021D01*
X146022957Y-99309932D01*
X145800068Y-99087043D01*
X145759595Y-99060000D01*
X145800068Y-99032957D01*
X146022957Y-98810068D01*
X146198079Y-98547979D01*
X146318706Y-98256761D01*
X146380200Y-97947606D01*
X146380200Y-97632394D01*
X146318706Y-97323239D01*
X146198079Y-97032021D01*
X146022957Y-96769932D01*
X145800068Y-96547043D01*
X145674899Y-96463408D01*
X145710989Y-96360594D01*
X144780000Y-95429605D01*
X143849011Y-96360594D01*
X143885101Y-96463408D01*
X143759932Y-96547043D01*
X143537043Y-96769932D01*
X143361921Y-97032021D01*
X143241294Y-97323239D01*
X143179800Y-97632394D01*
X140585000Y-97632394D01*
X140585000Y-95313971D01*
X143173330Y-95313971D01*
X143216682Y-95626188D01*
X143320112Y-95923948D01*
X143408562Y-96089428D01*
X143669406Y-96180989D01*
X144600395Y-95250000D01*
X144959605Y-95250000D01*
X145890594Y-96180989D01*
X146151438Y-96089428D01*
X146288851Y-95805744D01*
X146368279Y-95500704D01*
X146386670Y-95186029D01*
X146343318Y-94873812D01*
X146239888Y-94576052D01*
X146151438Y-94410572D01*
X145890594Y-94319011D01*
X144959605Y-95250000D01*
X144600395Y-95250000D01*
X143669406Y-94319011D01*
X143408562Y-94410572D01*
X143271149Y-94694256D01*
X143191721Y-94999296D01*
X143173330Y-95313971D01*
X140585000Y-95313971D01*
X140585000Y-91483465D01*
X140589281Y-91439999D01*
X140585000Y-91396533D01*
X140585000Y-91396523D01*
X140572195Y-91266510D01*
X140521589Y-91099687D01*
X140439411Y-90945941D01*
X140328817Y-90811183D01*
X140295050Y-90783471D01*
X140068072Y-90556493D01*
X140068072Y-89217500D01*
X140055812Y-89093018D01*
X140019502Y-88973320D01*
X139960537Y-88863006D01*
X139881185Y-88766315D01*
X139784494Y-88686963D01*
X139700554Y-88642095D01*
X139803845Y-88516235D01*
X139951255Y-88240449D01*
X140042030Y-87941204D01*
X140072681Y-87630000D01*
X140042030Y-87318796D01*
X139951255Y-87019551D01*
X139803845Y-86743765D01*
X139605463Y-86502037D01*
X139426101Y-86354837D01*
X139611315Y-86199437D01*
X139805969Y-85956923D01*
X139949571Y-85681094D01*
X140020563Y-85462980D01*
X139900594Y-85217000D01*
X138557000Y-85217000D01*
X138557000Y-85237000D01*
X138303000Y-85237000D01*
X138303000Y-85217000D01*
X136959406Y-85217000D01*
X136839437Y-85462980D01*
X136910429Y-85681094D01*
X137054031Y-85956923D01*
X137248685Y-86199437D01*
X137433899Y-86354837D01*
X137254537Y-86502037D01*
X137056155Y-86743765D01*
X137055495Y-86745000D01*
X129906579Y-86745000D01*
X128600619Y-85439040D01*
X129418091Y-85439040D01*
X129512930Y-85703881D01*
X129657615Y-85945131D01*
X129846586Y-86153519D01*
X130072580Y-86321037D01*
X130326913Y-86441246D01*
X130460961Y-86481904D01*
X130683000Y-86359915D01*
X130683000Y-85217000D01*
X130937000Y-85217000D01*
X130937000Y-86359915D01*
X131159039Y-86481904D01*
X131293087Y-86441246D01*
X131547420Y-86321037D01*
X131773414Y-86153519D01*
X131962385Y-85945131D01*
X132107070Y-85703881D01*
X132201909Y-85439040D01*
X132080624Y-85217000D01*
X130937000Y-85217000D01*
X130683000Y-85217000D01*
X129539376Y-85217000D01*
X129418091Y-85439040D01*
X128600619Y-85439040D01*
X127902539Y-84740960D01*
X129418091Y-84740960D01*
X129539376Y-84963000D01*
X130683000Y-84963000D01*
X130683000Y-83820085D01*
X130937000Y-83820085D01*
X130937000Y-84963000D01*
X132080624Y-84963000D01*
X132201909Y-84740960D01*
X132193337Y-84717020D01*
X136839437Y-84717020D01*
X136959406Y-84963000D01*
X138303000Y-84963000D01*
X138303000Y-83664430D01*
X138557000Y-83664430D01*
X138557000Y-84963000D01*
X139900594Y-84963000D01*
X140020563Y-84717020D01*
X139949571Y-84498906D01*
X139805969Y-84223077D01*
X139611315Y-83980563D01*
X139373089Y-83780684D01*
X139100446Y-83631121D01*
X138803863Y-83537622D01*
X138557000Y-83664430D01*
X138303000Y-83664430D01*
X138056137Y-83537622D01*
X137759554Y-83631121D01*
X137486911Y-83780684D01*
X137248685Y-83980563D01*
X137054031Y-84223077D01*
X136910429Y-84498906D01*
X136839437Y-84717020D01*
X132193337Y-84717020D01*
X132107070Y-84476119D01*
X131962385Y-84234869D01*
X131773414Y-84026481D01*
X131547420Y-83858963D01*
X131293087Y-83738754D01*
X131159039Y-83698096D01*
X130937000Y-83820085D01*
X130683000Y-83820085D01*
X130460961Y-83698096D01*
X130326913Y-83738754D01*
X130072580Y-83858963D01*
X129846586Y-84026481D01*
X129657615Y-84234869D01*
X129512930Y-84476119D01*
X129418091Y-84740960D01*
X127902539Y-84740960D01*
X127413147Y-84251568D01*
X127465000Y-83990883D01*
X127465000Y-83649117D01*
X127398325Y-83313919D01*
X127267537Y-82998169D01*
X127077663Y-82714002D01*
X126835998Y-82472337D01*
X126551831Y-82282463D01*
X126236081Y-82151675D01*
X125900883Y-82085000D01*
X125559117Y-82085000D01*
X125298432Y-82136854D01*
X125116534Y-81954956D01*
X125088817Y-81921183D01*
X124954059Y-81810589D01*
X124800313Y-81728411D01*
X124633490Y-81677805D01*
X124503477Y-81665000D01*
X124503469Y-81665000D01*
X124460000Y-81660719D01*
X124416531Y-81665000D01*
X112954656Y-81665000D01*
X112913475Y-81603368D01*
X112706632Y-81396525D01*
X112463411Y-81234010D01*
X112193158Y-81122068D01*
X111906260Y-81065000D01*
X111613740Y-81065000D01*
X111326842Y-81122068D01*
X111056589Y-81234010D01*
X110813368Y-81396525D01*
X110606525Y-81603368D01*
X110444010Y-81846589D01*
X110332068Y-82116842D01*
X110275000Y-82403740D01*
X110275000Y-82696260D01*
X110332068Y-82983158D01*
X110444010Y-83253411D01*
X110606525Y-83496632D01*
X110738380Y-83628487D01*
X110665820Y-83650498D01*
X110555506Y-83709463D01*
X110458815Y-83788815D01*
X110379463Y-83885506D01*
X110320498Y-83995820D01*
X110284188Y-84115518D01*
X110271928Y-84240000D01*
X106070000Y-84240000D01*
X106070000Y-80922702D01*
X138886903Y-80922702D01*
X138958486Y-81166671D01*
X139213996Y-81287571D01*
X139488184Y-81356300D01*
X139770512Y-81370217D01*
X140050130Y-81328787D01*
X140316292Y-81233603D01*
X140441514Y-81166671D01*
X140513097Y-80922702D01*
X139700000Y-80109605D01*
X138886903Y-80922702D01*
X106070000Y-80922702D01*
X106070000Y-80000512D01*
X138259783Y-80000512D01*
X138301213Y-80280130D01*
X138396397Y-80546292D01*
X138463329Y-80671514D01*
X138707298Y-80743097D01*
X139520395Y-79930000D01*
X139879605Y-79930000D01*
X140692702Y-80743097D01*
X140936671Y-80671514D01*
X141057571Y-80416004D01*
X141126300Y-80141816D01*
X141140217Y-79859488D01*
X141098787Y-79579870D01*
X141003603Y-79313708D01*
X140936671Y-79188486D01*
X140692702Y-79116903D01*
X139879605Y-79930000D01*
X139520395Y-79930000D01*
X138707298Y-79116903D01*
X138463329Y-79188486D01*
X138342429Y-79443996D01*
X138273700Y-79718184D01*
X138259783Y-80000512D01*
X106070000Y-80000512D01*
X106070000Y-78937298D01*
X138886903Y-78937298D01*
X139700000Y-79750395D01*
X140513097Y-78937298D01*
X140441514Y-78693329D01*
X140186004Y-78572429D01*
X139911816Y-78503700D01*
X139629488Y-78489783D01*
X139349870Y-78531213D01*
X139083708Y-78626397D01*
X138958486Y-78693329D01*
X138886903Y-78937298D01*
X106070000Y-78937298D01*
X106070000Y-75350000D01*
X110271928Y-75350000D01*
X110271928Y-77050000D01*
X110284188Y-77174482D01*
X110320498Y-77294180D01*
X110379463Y-77404494D01*
X110458815Y-77501185D01*
X110555506Y-77580537D01*
X110665820Y-77639502D01*
X110785518Y-77675812D01*
X110910000Y-77688072D01*
X112610000Y-77688072D01*
X112734482Y-77675812D01*
X112854180Y-77639502D01*
X112964494Y-77580537D01*
X113061185Y-77501185D01*
X113140537Y-77404494D01*
X113199502Y-77294180D01*
X113235812Y-77174482D01*
X113244625Y-77085000D01*
X129496531Y-77085000D01*
X129540000Y-77089281D01*
X129583469Y-77085000D01*
X129583477Y-77085000D01*
X129713490Y-77072195D01*
X129880313Y-77021589D01*
X130034059Y-76939411D01*
X130168817Y-76828817D01*
X130196534Y-76795044D01*
X130633561Y-76358017D01*
X130668665Y-76365000D01*
X130951335Y-76365000D01*
X131228574Y-76309853D01*
X131489727Y-76201680D01*
X131724759Y-76044637D01*
X131924637Y-75844759D01*
X131944521Y-75815000D01*
X138565479Y-75815000D01*
X138585363Y-75844759D01*
X138785241Y-76044637D01*
X139020273Y-76201680D01*
X139281426Y-76309853D01*
X139558665Y-76365000D01*
X139841335Y-76365000D01*
X140118574Y-76309853D01*
X140379727Y-76201680D01*
X140614759Y-76044637D01*
X140814637Y-75844759D01*
X140834521Y-75815000D01*
X143446794Y-75815000D01*
X143537043Y-75950068D01*
X143759932Y-76172957D01*
X143800405Y-76200000D01*
X143759932Y-76227043D01*
X143537043Y-76449932D01*
X143361921Y-76712021D01*
X143241294Y-77003239D01*
X143179800Y-77312394D01*
X143179800Y-77627606D01*
X143241294Y-77936761D01*
X143361921Y-78227979D01*
X143537043Y-78490068D01*
X143759932Y-78712957D01*
X143800405Y-78740000D01*
X143759932Y-78767043D01*
X143537043Y-78989932D01*
X143361921Y-79252021D01*
X143241294Y-79543239D01*
X143179800Y-79852394D01*
X143179800Y-80167606D01*
X143241294Y-80476761D01*
X143361921Y-80767979D01*
X143537043Y-81030068D01*
X143759932Y-81252957D01*
X143800405Y-81280000D01*
X143759932Y-81307043D01*
X143537043Y-81529932D01*
X143361921Y-81792021D01*
X143241294Y-82083239D01*
X143179800Y-82392394D01*
X143179800Y-82707606D01*
X143241294Y-83016761D01*
X143361921Y-83307979D01*
X143537043Y-83570068D01*
X143759932Y-83792957D01*
X143800405Y-83820000D01*
X143759932Y-83847043D01*
X143537043Y-84069932D01*
X143361921Y-84332021D01*
X143241294Y-84623239D01*
X143179800Y-84932394D01*
X143179800Y-85247606D01*
X143241294Y-85556761D01*
X143361921Y-85847979D01*
X143537043Y-86110068D01*
X143759932Y-86332957D01*
X143800405Y-86360000D01*
X143759932Y-86387043D01*
X143537043Y-86609932D01*
X143361921Y-86872021D01*
X143241294Y-87163239D01*
X143179800Y-87472394D01*
X143179800Y-87787606D01*
X143241294Y-88096761D01*
X143361921Y-88387979D01*
X143537043Y-88650068D01*
X143759932Y-88872957D01*
X143800405Y-88900000D01*
X143759932Y-88927043D01*
X143537043Y-89149932D01*
X143361921Y-89412021D01*
X143241294Y-89703239D01*
X143179800Y-90012394D01*
X143179800Y-90327606D01*
X143241294Y-90636761D01*
X143361921Y-90927979D01*
X143537043Y-91190068D01*
X143759932Y-91412957D01*
X143800405Y-91440000D01*
X143759932Y-91467043D01*
X143537043Y-91689932D01*
X143361921Y-91952021D01*
X143241294Y-92243239D01*
X143179800Y-92552394D01*
X143179800Y-92867606D01*
X143241294Y-93176761D01*
X143361921Y-93467979D01*
X143537043Y-93730068D01*
X143759932Y-93952957D01*
X143885101Y-94036592D01*
X143849011Y-94139406D01*
X144780000Y-95070395D01*
X145710989Y-94139406D01*
X145674899Y-94036592D01*
X145800068Y-93952957D01*
X146022957Y-93730068D01*
X146198079Y-93467979D01*
X146318706Y-93176761D01*
X146380200Y-92867606D01*
X146380200Y-92552394D01*
X146318706Y-92243239D01*
X146198079Y-91952021D01*
X146022957Y-91689932D01*
X145800068Y-91467043D01*
X145759595Y-91440000D01*
X145800068Y-91412957D01*
X146022957Y-91190068D01*
X146198079Y-90927979D01*
X146318706Y-90636761D01*
X146380200Y-90327606D01*
X146380200Y-90012394D01*
X146318706Y-89703239D01*
X146198079Y-89412021D01*
X146022957Y-89149932D01*
X145800068Y-88927043D01*
X145759595Y-88900000D01*
X145800068Y-88872957D01*
X146022957Y-88650068D01*
X146198079Y-88387979D01*
X146318706Y-88096761D01*
X146380200Y-87787606D01*
X146380200Y-87693971D01*
X166033330Y-87693971D01*
X166076682Y-88006188D01*
X166180112Y-88303948D01*
X166268562Y-88469428D01*
X166529406Y-88560989D01*
X167460395Y-87630000D01*
X167819605Y-87630000D01*
X168750594Y-88560989D01*
X169011438Y-88469428D01*
X169148851Y-88185744D01*
X169228279Y-87880704D01*
X169246670Y-87566029D01*
X169203318Y-87253812D01*
X169099888Y-86956052D01*
X169011438Y-86790572D01*
X168750594Y-86699011D01*
X167819605Y-87630000D01*
X167460395Y-87630000D01*
X166529406Y-86699011D01*
X166268562Y-86790572D01*
X166131149Y-87074256D01*
X166051721Y-87379296D01*
X166033330Y-87693971D01*
X146380200Y-87693971D01*
X146380200Y-87472394D01*
X146318706Y-87163239D01*
X146198079Y-86872021D01*
X146022957Y-86609932D01*
X145800068Y-86387043D01*
X145759595Y-86360000D01*
X145800068Y-86332957D01*
X146022957Y-86110068D01*
X146198079Y-85847979D01*
X146318706Y-85556761D01*
X146380200Y-85247606D01*
X146380200Y-84932394D01*
X146318706Y-84623239D01*
X146198079Y-84332021D01*
X146022957Y-84069932D01*
X145800068Y-83847043D01*
X145759595Y-83820000D01*
X145800068Y-83792957D01*
X146022957Y-83570068D01*
X146198079Y-83307979D01*
X146318706Y-83016761D01*
X146380200Y-82707606D01*
X146380200Y-82392394D01*
X146318706Y-82083239D01*
X146198079Y-81792021D01*
X146022957Y-81529932D01*
X145800068Y-81307043D01*
X145759595Y-81280000D01*
X145800068Y-81252957D01*
X146022957Y-81030068D01*
X146198079Y-80767979D01*
X146318706Y-80476761D01*
X146380200Y-80167606D01*
X146380200Y-79852394D01*
X146318706Y-79543239D01*
X146198079Y-79252021D01*
X146022957Y-78989932D01*
X145800068Y-78767043D01*
X145759595Y-78740000D01*
X145800068Y-78712957D01*
X146022957Y-78490068D01*
X146198079Y-78227979D01*
X146318706Y-77936761D01*
X146380200Y-77627606D01*
X146380200Y-77312394D01*
X146318706Y-77003239D01*
X146198079Y-76712021D01*
X146022957Y-76449932D01*
X145800068Y-76227043D01*
X145759595Y-76200000D01*
X145800068Y-76172957D01*
X146022957Y-75950068D01*
X146198079Y-75687979D01*
X146318706Y-75396761D01*
X146380200Y-75087606D01*
X146380200Y-74772394D01*
X146318706Y-74463239D01*
X146198079Y-74172021D01*
X146022957Y-73909932D01*
X145800068Y-73687043D01*
X145759595Y-73660000D01*
X145800068Y-73632957D01*
X146022957Y-73410068D01*
X146198079Y-73147979D01*
X146318706Y-72856761D01*
X146380200Y-72547606D01*
X146380200Y-72232394D01*
X166039800Y-72232394D01*
X166039800Y-72547606D01*
X166101294Y-72856761D01*
X166221921Y-73147979D01*
X166397043Y-73410068D01*
X166619932Y-73632957D01*
X166660405Y-73660000D01*
X166619932Y-73687043D01*
X166397043Y-73909932D01*
X166221921Y-74172021D01*
X166101294Y-74463239D01*
X166039800Y-74772394D01*
X166039800Y-75087606D01*
X166101294Y-75396761D01*
X166221921Y-75687979D01*
X166397043Y-75950068D01*
X166619932Y-76172957D01*
X166660405Y-76200000D01*
X166619932Y-76227043D01*
X166397043Y-76449932D01*
X166221921Y-76712021D01*
X166101294Y-77003239D01*
X166039800Y-77312394D01*
X166039800Y-77627606D01*
X166101294Y-77936761D01*
X166221921Y-78227979D01*
X166397043Y-78490068D01*
X166619932Y-78712957D01*
X166660405Y-78740000D01*
X166619932Y-78767043D01*
X166397043Y-78989932D01*
X166221921Y-79252021D01*
X166101294Y-79543239D01*
X166039800Y-79852394D01*
X166039800Y-80167606D01*
X166101294Y-80476761D01*
X166221921Y-80767979D01*
X166397043Y-81030068D01*
X166619932Y-81252957D01*
X166660405Y-81280000D01*
X166619932Y-81307043D01*
X166397043Y-81529932D01*
X166221921Y-81792021D01*
X166101294Y-82083239D01*
X166039800Y-82392394D01*
X166039800Y-82707606D01*
X166101294Y-83016761D01*
X166221921Y-83307979D01*
X166397043Y-83570068D01*
X166619932Y-83792957D01*
X166660405Y-83820000D01*
X166619932Y-83847043D01*
X166397043Y-84069932D01*
X166221921Y-84332021D01*
X166101294Y-84623239D01*
X166039800Y-84932394D01*
X166039800Y-85247606D01*
X166101294Y-85556761D01*
X166221921Y-85847979D01*
X166397043Y-86110068D01*
X166619932Y-86332957D01*
X166745101Y-86416592D01*
X166709011Y-86519406D01*
X167640000Y-87450395D01*
X168570989Y-86519406D01*
X168534899Y-86416592D01*
X168660068Y-86332957D01*
X168882957Y-86110068D01*
X169058079Y-85847979D01*
X169178706Y-85556761D01*
X169240200Y-85247606D01*
X169240200Y-84932394D01*
X169178706Y-84623239D01*
X169058079Y-84332021D01*
X168882957Y-84069932D01*
X168660068Y-83847043D01*
X168619595Y-83820000D01*
X168660068Y-83792957D01*
X168882957Y-83570068D01*
X169058079Y-83307979D01*
X169178706Y-83016761D01*
X169240200Y-82707606D01*
X169240200Y-82392394D01*
X169178706Y-82083239D01*
X169058079Y-81792021D01*
X168882957Y-81529932D01*
X168660068Y-81307043D01*
X168619595Y-81280000D01*
X168660068Y-81252957D01*
X168882957Y-81030068D01*
X169058079Y-80767979D01*
X169178706Y-80476761D01*
X169240200Y-80167606D01*
X169240200Y-79852394D01*
X169178706Y-79543239D01*
X169058079Y-79252021D01*
X168882957Y-78989932D01*
X168660068Y-78767043D01*
X168619595Y-78740000D01*
X168660068Y-78712957D01*
X168882957Y-78490068D01*
X168973206Y-78355000D01*
X177935479Y-78355000D01*
X177955363Y-78384759D01*
X178155241Y-78584637D01*
X178390273Y-78741680D01*
X178651426Y-78849853D01*
X178928665Y-78905000D01*
X179211335Y-78905000D01*
X179488574Y-78849853D01*
X179749727Y-78741680D01*
X179984759Y-78584637D01*
X180184637Y-78384759D01*
X180204521Y-78355000D01*
X184909135Y-78355000D01*
X184923969Y-78382752D01*
X185128286Y-78631714D01*
X185258142Y-78738284D01*
X185044078Y-78943683D01*
X184859990Y-79207239D01*
X184730856Y-79501645D01*
X184699876Y-79629566D01*
X184819223Y-79883000D01*
X186563000Y-79883000D01*
X186563000Y-79863000D01*
X186817000Y-79863000D01*
X186817000Y-79883000D01*
X188560777Y-79883000D01*
X188680124Y-79629566D01*
X188649144Y-79501645D01*
X188520010Y-79207239D01*
X188335922Y-78943683D01*
X188121858Y-78738284D01*
X188251714Y-78631714D01*
X188456031Y-78382752D01*
X188607852Y-78098715D01*
X188701343Y-77790516D01*
X188732911Y-77470000D01*
X188701343Y-77149484D01*
X188607852Y-76841285D01*
X188456031Y-76557248D01*
X188251714Y-76308286D01*
X188119767Y-76200000D01*
X188251714Y-76091714D01*
X188456031Y-75842752D01*
X188607852Y-75558715D01*
X188701343Y-75250516D01*
X188732911Y-74930000D01*
X188701343Y-74609484D01*
X188607852Y-74301285D01*
X188456031Y-74017248D01*
X188397345Y-73945739D01*
X188444494Y-73920537D01*
X188541185Y-73841185D01*
X188620537Y-73744494D01*
X188679502Y-73634180D01*
X188715812Y-73514482D01*
X188728072Y-73390000D01*
X188728072Y-71390000D01*
X188715812Y-71265518D01*
X188679502Y-71145820D01*
X188620537Y-71035506D01*
X188541185Y-70938815D01*
X188444494Y-70859463D01*
X188334180Y-70800498D01*
X188214482Y-70764188D01*
X188090000Y-70751928D01*
X185290000Y-70751928D01*
X185165518Y-70764188D01*
X185045820Y-70800498D01*
X184935506Y-70859463D01*
X184838815Y-70938815D01*
X184759463Y-71035506D01*
X184700498Y-71145820D01*
X184664188Y-71265518D01*
X184651928Y-71390000D01*
X184651928Y-73390000D01*
X184664188Y-73514482D01*
X184700498Y-73634180D01*
X184759463Y-73744494D01*
X184838815Y-73841185D01*
X184935506Y-73920537D01*
X184982655Y-73945739D01*
X184923969Y-74017248D01*
X184909135Y-74045000D01*
X175124521Y-74045000D01*
X175104637Y-74015241D01*
X174904759Y-73815363D01*
X174669727Y-73658320D01*
X174408574Y-73550147D01*
X174131335Y-73495000D01*
X173848665Y-73495000D01*
X173571426Y-73550147D01*
X173310273Y-73658320D01*
X173075241Y-73815363D01*
X172875363Y-74015241D01*
X172855479Y-74045000D01*
X168973206Y-74045000D01*
X168882957Y-73909932D01*
X168660068Y-73687043D01*
X168619595Y-73660000D01*
X168660068Y-73632957D01*
X168882957Y-73410068D01*
X169058079Y-73147979D01*
X169178706Y-72856761D01*
X169240200Y-72547606D01*
X169240200Y-72232394D01*
X169178706Y-71923239D01*
X169058079Y-71632021D01*
X168882957Y-71369932D01*
X168660068Y-71147043D01*
X168397979Y-70971921D01*
X168106761Y-70851294D01*
X167797606Y-70789800D01*
X167482394Y-70789800D01*
X167173239Y-70851294D01*
X166882021Y-70971921D01*
X166619932Y-71147043D01*
X166397043Y-71369932D01*
X166221921Y-71632021D01*
X166101294Y-71923239D01*
X166039800Y-72232394D01*
X146380200Y-72232394D01*
X146318706Y-71923239D01*
X146198079Y-71632021D01*
X146022957Y-71369932D01*
X145800068Y-71147043D01*
X145537979Y-70971921D01*
X145246761Y-70851294D01*
X144937606Y-70789800D01*
X144622394Y-70789800D01*
X144313239Y-70851294D01*
X144022021Y-70971921D01*
X143759932Y-71147043D01*
X143537043Y-71369932D01*
X143361921Y-71632021D01*
X143241294Y-71923239D01*
X143179800Y-72232394D01*
X143179800Y-72547606D01*
X143241294Y-72856761D01*
X143361921Y-73147979D01*
X143537043Y-73410068D01*
X143759932Y-73632957D01*
X143800405Y-73660000D01*
X143759932Y-73687043D01*
X143537043Y-73909932D01*
X143446794Y-74045000D01*
X140834521Y-74045000D01*
X140814637Y-74015241D01*
X140614759Y-73815363D01*
X140379727Y-73658320D01*
X140118574Y-73550147D01*
X139841335Y-73495000D01*
X139558665Y-73495000D01*
X139281426Y-73550147D01*
X139020273Y-73658320D01*
X138785241Y-73815363D01*
X138585363Y-74015241D01*
X138565479Y-74045000D01*
X131944521Y-74045000D01*
X131924637Y-74015241D01*
X131724759Y-73815363D01*
X131489727Y-73658320D01*
X131228574Y-73550147D01*
X130951335Y-73495000D01*
X130668665Y-73495000D01*
X130391426Y-73550147D01*
X130130273Y-73658320D01*
X129895241Y-73815363D01*
X129695363Y-74015241D01*
X129538320Y-74250273D01*
X129430147Y-74511426D01*
X129375000Y-74788665D01*
X129375000Y-75071335D01*
X129381983Y-75106439D01*
X129173422Y-75315000D01*
X113244625Y-75315000D01*
X113235812Y-75225518D01*
X113199502Y-75105820D01*
X113140537Y-74995506D01*
X113061185Y-74898815D01*
X112964494Y-74819463D01*
X112854180Y-74760498D01*
X112781620Y-74738487D01*
X112913475Y-74606632D01*
X112954656Y-74545000D01*
X124416531Y-74545000D01*
X124460000Y-74549281D01*
X124503469Y-74545000D01*
X124503477Y-74545000D01*
X124633490Y-74532195D01*
X124800313Y-74481589D01*
X124954059Y-74399411D01*
X125088817Y-74288817D01*
X125116534Y-74255044D01*
X129363561Y-70008017D01*
X129398665Y-70015000D01*
X129681335Y-70015000D01*
X129958574Y-69959853D01*
X130219727Y-69851680D01*
X130454759Y-69694637D01*
X130654637Y-69494759D01*
X130811680Y-69259727D01*
X130919853Y-68998574D01*
X130975000Y-68721335D01*
X130975000Y-68438665D01*
X130919853Y-68161426D01*
X130811680Y-67900273D01*
X130654637Y-67665241D01*
X130454759Y-67465363D01*
X130219727Y-67308320D01*
X129958574Y-67200147D01*
X129681335Y-67145000D01*
X129398665Y-67145000D01*
X129121426Y-67200147D01*
X128860273Y-67308320D01*
X128625241Y-67465363D01*
X128425363Y-67665241D01*
X128268320Y-67900273D01*
X128160147Y-68161426D01*
X128105000Y-68438665D01*
X128105000Y-68721335D01*
X128111983Y-68756439D01*
X124093422Y-72775000D01*
X112954656Y-72775000D01*
X112913475Y-72713368D01*
X112706632Y-72506525D01*
X112463411Y-72344010D01*
X112193158Y-72232068D01*
X111906260Y-72175000D01*
X111613740Y-72175000D01*
X111326842Y-72232068D01*
X111056589Y-72344010D01*
X110813368Y-72506525D01*
X110606525Y-72713368D01*
X110444010Y-72956589D01*
X110332068Y-73226842D01*
X110275000Y-73513740D01*
X110275000Y-73806260D01*
X110332068Y-74093158D01*
X110444010Y-74363411D01*
X110606525Y-74606632D01*
X110738380Y-74738487D01*
X110665820Y-74760498D01*
X110555506Y-74819463D01*
X110458815Y-74898815D01*
X110379463Y-74995506D01*
X110320498Y-75105820D01*
X110284188Y-75225518D01*
X110271928Y-75350000D01*
X106070000Y-75350000D01*
X106070000Y-70408519D01*
X106396511Y-70897177D01*
X106902823Y-71403489D01*
X107498182Y-71801295D01*
X108159710Y-72075309D01*
X108861984Y-72215000D01*
X109578016Y-72215000D01*
X110280290Y-72075309D01*
X110941818Y-71801295D01*
X111537177Y-71403489D01*
X112043489Y-70897177D01*
X112441295Y-70301818D01*
X112715309Y-69640290D01*
X112855000Y-68938016D01*
X112855000Y-68221984D01*
X112715309Y-67519710D01*
X112441295Y-66858182D01*
X112043489Y-66262823D01*
X111537177Y-65756511D01*
X111048519Y-65430000D01*
X202641481Y-65430000D01*
X202152823Y-65756511D01*
G37*
X202152823Y-65756511D02*
X201646511Y-66262823D01*
X201248705Y-66858182D01*
X200974691Y-67519710D01*
X200835000Y-68221984D01*
X200835000Y-68938016D01*
X200974691Y-69640290D01*
X201248705Y-70301818D01*
X201646511Y-70897177D01*
X202152823Y-71403489D01*
X202748182Y-71801295D01*
X203409710Y-72075309D01*
X204111984Y-72215000D01*
X204828016Y-72215000D01*
X205530290Y-72075309D01*
X206191818Y-71801295D01*
X206787177Y-71403489D01*
X207293489Y-70897177D01*
X207620001Y-70408517D01*
X207620000Y-116281482D01*
X207293489Y-115792823D01*
X206787177Y-115286511D01*
X206191818Y-114888705D01*
X205530290Y-114614691D01*
X204828016Y-114475000D01*
X204111984Y-114475000D01*
X203409710Y-114614691D01*
X202748182Y-114888705D01*
X202152823Y-115286511D01*
X201646511Y-115792823D01*
X201248705Y-116388182D01*
X200974691Y-117049710D01*
X200835000Y-117751984D01*
X200835000Y-118468016D01*
X200974691Y-119170290D01*
X201248705Y-119831818D01*
X201646511Y-120427177D01*
X202152823Y-120933489D01*
X202641481Y-121260000D01*
X111048519Y-121260000D01*
X111537177Y-120933489D01*
X112043489Y-120427177D01*
X112441295Y-119831818D01*
X112715309Y-119170290D01*
X112855000Y-118468016D01*
X112855000Y-117751984D01*
X112715309Y-117049710D01*
X112441295Y-116388182D01*
X112043489Y-115792823D01*
X111537177Y-115286511D01*
X111226374Y-115078839D01*
X111359811Y-115063842D01*
X111807468Y-114921297D01*
X112163927Y-114730766D01*
X112350003Y-114389609D01*
X110860000Y-112899605D01*
X109369997Y-114389609D01*
X109416571Y-114475000D01*
X108861984Y-114475000D01*
X108159710Y-114614691D01*
X107498182Y-114888705D01*
X106902823Y-115286511D01*
X106396511Y-115792823D01*
X106070000Y-116281481D01*
X106070000Y-112752946D01*
X108463687Y-112752946D01*
X108516158Y-113219811D01*
X108658703Y-113667468D01*
X108849234Y-114023927D01*
X109190391Y-114210003D01*
X110680395Y-112720000D01*
X111039605Y-112720000D01*
X112529609Y-114210003D01*
X112870766Y-114023927D01*
X113086513Y-113606591D01*
X113216696Y-113155185D01*
X113256313Y-112687054D01*
X113203842Y-112220189D01*
X113061297Y-111772532D01*
X112870766Y-111416073D01*
X112529609Y-111229997D01*
X111039605Y-112720000D01*
X110680395Y-112720000D01*
X109190391Y-111229997D01*
X108849234Y-111416073D01*
X108633487Y-111833409D01*
X108503304Y-112284815D01*
X108463687Y-112752946D01*
X106070000Y-112752946D01*
X106070000Y-111050391D01*
X109369997Y-111050391D01*
X110860000Y-112540395D01*
X112350003Y-111050391D01*
X112163927Y-110709234D01*
X111746591Y-110493487D01*
X111295185Y-110363304D01*
X110827054Y-110323687D01*
X110360189Y-110376158D01*
X109912532Y-110518703D01*
X109556073Y-110709234D01*
X109369997Y-111050391D01*
X106070000Y-111050391D01*
X106070000Y-108018531D01*
X112079389Y-108018531D01*
X112121401Y-108308019D01*
X112219081Y-108583747D01*
X112292528Y-108721157D01*
X112541603Y-108798792D01*
X113390395Y-107950000D01*
X112541603Y-107101208D01*
X112292528Y-107178843D01*
X112166629Y-107442883D01*
X112094661Y-107726411D01*
X112079389Y-108018531D01*
X106070000Y-108018531D01*
X106070000Y-103790960D01*
X125608091Y-103790960D01*
X125729376Y-104013000D01*
X126873000Y-104013000D01*
X126873000Y-102870085D01*
X127127000Y-102870085D01*
X127127000Y-104013000D01*
X128270624Y-104013000D01*
X128391909Y-103790960D01*
X128297070Y-103526119D01*
X128152385Y-103284869D01*
X127963414Y-103076481D01*
X127737420Y-102908963D01*
X127483087Y-102788754D01*
X127349039Y-102748096D01*
X127127000Y-102870085D01*
X126873000Y-102870085D01*
X126650961Y-102748096D01*
X126516913Y-102788754D01*
X126262580Y-102908963D01*
X126036586Y-103076481D01*
X125847615Y-103284869D01*
X125702930Y-103526119D01*
X125608091Y-103790960D01*
X106070000Y-103790960D01*
X106070000Y-102349609D01*
X109369997Y-102349609D01*
X109556073Y-102690766D01*
X109973409Y-102906513D01*
X110424815Y-103036696D01*
X110892946Y-103076313D01*
X111359811Y-103023842D01*
X111807468Y-102881297D01*
X112163927Y-102690766D01*
X112350003Y-102349609D01*
X110860000Y-100859605D01*
X109369997Y-102349609D01*
X106070000Y-102349609D01*
X106070000Y-100712946D01*
X108463687Y-100712946D01*
X108516158Y-101179811D01*
X108658703Y-101627468D01*
X108849234Y-101983927D01*
X109190391Y-102170003D01*
X110680395Y-100680000D01*
X111039605Y-100680000D01*
X112529609Y-102170003D01*
X112870766Y-101983927D01*
X113086513Y-101566591D01*
X113216696Y-101115185D01*
X113256313Y-100647054D01*
X113203842Y-100180189D01*
X113061297Y-99732532D01*
X112901656Y-99433863D01*
X124177622Y-99433863D01*
X124271121Y-99730446D01*
X124420684Y-100003089D01*
X124620563Y-100241315D01*
X124863077Y-100435969D01*
X125138906Y-100579571D01*
X125357020Y-100650563D01*
X125603000Y-100530594D01*
X125603000Y-99187000D01*
X124304430Y-99187000D01*
X124177622Y-99433863D01*
X112901656Y-99433863D01*
X112870766Y-99376073D01*
X112529609Y-99189997D01*
X111039605Y-100680000D01*
X110680395Y-100680000D01*
X109190391Y-99189997D01*
X108849234Y-99376073D01*
X108633487Y-99793409D01*
X108503304Y-100244815D01*
X108463687Y-100712946D01*
X106070000Y-100712946D01*
X106070000Y-99010391D01*
X109369997Y-99010391D01*
X110860000Y-100500395D01*
X112350003Y-99010391D01*
X112173147Y-98686137D01*
X124177622Y-98686137D01*
X124304430Y-98933000D01*
X125603000Y-98933000D01*
X125603000Y-97589406D01*
X125357020Y-97469437D01*
X125138906Y-97540429D01*
X124863077Y-97684031D01*
X124620563Y-97878685D01*
X124420684Y-98116911D01*
X124271121Y-98389554D01*
X124177622Y-98686137D01*
X112173147Y-98686137D01*
X112163927Y-98669234D01*
X111746591Y-98453487D01*
X111295185Y-98323304D01*
X110827054Y-98283687D01*
X110360189Y-98336158D01*
X109912532Y-98478703D01*
X109556073Y-98669234D01*
X109369997Y-99010391D01*
X106070000Y-99010391D01*
X106070000Y-84240000D01*
X110271928Y-84240000D01*
X110271928Y-85940000D01*
X110284188Y-86064482D01*
X110320498Y-86184180D01*
X110379463Y-86294494D01*
X110458815Y-86391185D01*
X110555506Y-86470537D01*
X110665820Y-86529502D01*
X110775001Y-86562622D01*
X110775000Y-90324893D01*
X110606525Y-90493368D01*
X110444010Y-90736589D01*
X110332068Y-91006842D01*
X110275000Y-91293740D01*
X110275000Y-91586260D01*
X110332068Y-91873158D01*
X110444010Y-92143411D01*
X110606525Y-92386632D01*
X110813368Y-92593475D01*
X110987760Y-92710000D01*
X110813368Y-92826525D01*
X110606525Y-93033368D01*
X110444010Y-93276589D01*
X110332068Y-93546842D01*
X110275000Y-93833740D01*
X110275000Y-94126260D01*
X110332068Y-94413158D01*
X110444010Y-94683411D01*
X110606525Y-94926632D01*
X110738380Y-95058487D01*
X110665820Y-95080498D01*
X110555506Y-95139463D01*
X110458815Y-95218815D01*
X110379463Y-95315506D01*
X110320498Y-95425820D01*
X110284188Y-95545518D01*
X110271928Y-95670000D01*
X110271928Y-97370000D01*
X110284188Y-97494482D01*
X110320498Y-97614180D01*
X110379463Y-97724494D01*
X110458815Y-97821185D01*
X110555506Y-97900537D01*
X110665820Y-97959502D01*
X110785518Y-97995812D01*
X110910000Y-98008072D01*
X112610000Y-98008072D01*
X112734482Y-97995812D01*
X112854180Y-97959502D01*
X112964494Y-97900537D01*
X113061185Y-97821185D01*
X113140537Y-97724494D01*
X113199502Y-97614180D01*
X113235812Y-97494482D01*
X113244625Y-97405000D01*
X126863422Y-97405000D01*
X127252392Y-97793971D01*
X127142037Y-97884537D01*
X126994837Y-98063899D01*
X126839437Y-97878685D01*
X126596923Y-97684031D01*
X126321094Y-97540429D01*
X126102980Y-97469437D01*
X125857000Y-97589406D01*
X125857000Y-98933000D01*
X125877000Y-98933000D01*
X125877000Y-99187000D01*
X125857000Y-99187000D01*
X125857000Y-100530594D01*
X126102980Y-100650563D01*
X126321094Y-100579571D01*
X126596923Y-100435969D01*
X126839437Y-100241315D01*
X126994838Y-100056100D01*
X127142037Y-100235463D01*
X127383765Y-100433845D01*
X127659551Y-100581255D01*
X127958796Y-100672030D01*
X128270000Y-100702681D01*
X128581203Y-100672030D01*
X128880448Y-100581255D01*
X129156234Y-100433845D01*
X129282095Y-100330553D01*
X129326963Y-100414494D01*
X129406315Y-100511185D01*
X129503006Y-100590537D01*
X129613320Y-100649502D01*
X129733018Y-100685812D01*
X129857500Y-100698072D01*
X131762500Y-100698072D01*
X131886982Y-100685812D01*
X132006680Y-100649502D01*
X132116994Y-100590537D01*
X132213685Y-100511185D01*
X132293037Y-100414494D01*
X132318249Y-100367327D01*
X133735000Y-101784079D01*
X133735001Y-102965144D01*
X133735000Y-102965154D01*
X133735000Y-103005479D01*
X133705241Y-103025363D01*
X133505363Y-103225241D01*
X133348320Y-103460273D01*
X133240147Y-103721426D01*
X133185000Y-103998665D01*
X133185000Y-104281335D01*
X133240147Y-104558574D01*
X133348320Y-104819727D01*
X133505363Y-105054759D01*
X133705241Y-105254637D01*
X133940273Y-105411680D01*
X134201426Y-105519853D01*
X134478665Y-105575000D01*
X134761335Y-105575000D01*
X135038574Y-105519853D01*
X135299727Y-105411680D01*
X135534759Y-105254637D01*
X135734637Y-105054759D01*
X135891680Y-104819727D01*
X135999853Y-104558574D01*
X136055000Y-104281335D01*
X136055000Y-103998665D01*
X135999853Y-103721426D01*
X135891680Y-103460273D01*
X135734637Y-103225241D01*
X135534759Y-103025363D01*
X135505000Y-103005479D01*
X135505000Y-101460965D01*
X135509281Y-101417499D01*
X135505000Y-101374033D01*
X135505000Y-101374023D01*
X135492195Y-101244010D01*
X135441589Y-101077187D01*
X135359411Y-100923441D01*
X135248817Y-100788683D01*
X135215050Y-100760971D01*
X132919034Y-98464956D01*
X132891317Y-98431183D01*
X132756559Y-98320589D01*
X132602813Y-98238411D01*
X132435990Y-98187805D01*
X132400572Y-98184317D01*
X132400572Y-98060000D01*
X132388312Y-97935518D01*
X132352002Y-97815820D01*
X132293037Y-97705506D01*
X132213685Y-97608815D01*
X132116994Y-97529463D01*
X132006680Y-97470498D01*
X131886982Y-97434188D01*
X131762500Y-97421928D01*
X129857500Y-97421928D01*
X129733018Y-97434188D01*
X129613320Y-97470498D01*
X129503006Y-97529463D01*
X129406315Y-97608815D01*
X129326963Y-97705506D01*
X129282095Y-97789446D01*
X129156235Y-97686155D01*
X129155000Y-97685495D01*
X129155000Y-97603465D01*
X129159281Y-97559999D01*
X129155000Y-97516533D01*
X129155000Y-97516523D01*
X129142195Y-97386510D01*
X129091589Y-97219687D01*
X129009411Y-97065941D01*
X128966832Y-97014059D01*
X128926532Y-96964953D01*
X128926530Y-96964951D01*
X128898817Y-96931183D01*
X128865050Y-96903471D01*
X127886534Y-95924956D01*
X127858817Y-95891183D01*
X127724059Y-95780589D01*
X127570313Y-95698411D01*
X127403490Y-95647805D01*
X127273477Y-95635000D01*
X127273469Y-95635000D01*
X127230000Y-95630719D01*
X127186531Y-95635000D01*
X113244625Y-95635000D01*
X113235812Y-95545518D01*
X113199502Y-95425820D01*
X113140537Y-95315506D01*
X113061185Y-95218815D01*
X112964494Y-95139463D01*
X112854180Y-95080498D01*
X112781620Y-95058487D01*
X112913475Y-94926632D01*
X113075990Y-94683411D01*
X113187932Y-94413158D01*
X113245000Y-94126260D01*
X113245000Y-93833740D01*
X113187932Y-93546842D01*
X113075990Y-93276589D01*
X112913475Y-93033368D01*
X112706632Y-92826525D01*
X112532240Y-92710000D01*
X112706632Y-92593475D01*
X112875107Y-92425000D01*
X123991928Y-92425000D01*
X123991928Y-92540000D01*
X124004188Y-92664482D01*
X124040498Y-92784180D01*
X124099463Y-92894494D01*
X124178815Y-92991185D01*
X124275506Y-93070537D01*
X124385820Y-93129502D01*
X124505518Y-93165812D01*
X124630000Y-93178072D01*
X126830000Y-93178072D01*
X126954482Y-93165812D01*
X127074180Y-93129502D01*
X127184494Y-93070537D01*
X127281185Y-92991185D01*
X127360537Y-92894494D01*
X127419502Y-92784180D01*
X127455812Y-92664482D01*
X127468072Y-92540000D01*
X127468072Y-92425000D01*
X131672000Y-92425000D01*
X136175001Y-96928002D01*
X136175000Y-106272000D01*
X134212000Y-108235000D01*
X127408000Y-108235000D01*
X126460716Y-107287716D01*
X126429870Y-107250130D01*
X126279884Y-107127040D01*
X126108767Y-107035576D01*
X126087221Y-107029040D01*
X129418091Y-107029040D01*
X129512930Y-107293881D01*
X129657615Y-107535131D01*
X129846586Y-107743519D01*
X130072580Y-107911037D01*
X130326913Y-108031246D01*
X130460961Y-108071904D01*
X130683000Y-107949915D01*
X130683000Y-106807000D01*
X130937000Y-106807000D01*
X130937000Y-107949915D01*
X131159039Y-108071904D01*
X131293087Y-108031246D01*
X131547420Y-107911037D01*
X131773414Y-107743519D01*
X131962385Y-107535131D01*
X132107070Y-107293881D01*
X132201909Y-107029040D01*
X132080624Y-106807000D01*
X130937000Y-106807000D01*
X130683000Y-106807000D01*
X129539376Y-106807000D01*
X129418091Y-107029040D01*
X126087221Y-107029040D01*
X125923094Y-106979253D01*
X125778380Y-106965000D01*
X125730000Y-106960235D01*
X125681620Y-106965000D01*
X122692454Y-106965000D01*
X122674502Y-106905820D01*
X122615537Y-106795506D01*
X122536185Y-106698815D01*
X122523242Y-106688193D01*
X122642571Y-106436004D01*
X122668901Y-106330960D01*
X129418091Y-106330960D01*
X129539376Y-106553000D01*
X130683000Y-106553000D01*
X130683000Y-105410085D01*
X130937000Y-105410085D01*
X130937000Y-106553000D01*
X132080624Y-106553000D01*
X132201909Y-106330960D01*
X132107070Y-106066119D01*
X131962385Y-105824869D01*
X131773414Y-105616481D01*
X131547420Y-105448963D01*
X131293087Y-105328754D01*
X131159039Y-105288096D01*
X130937000Y-105410085D01*
X130683000Y-105410085D01*
X130460961Y-105288096D01*
X130326913Y-105328754D01*
X130072580Y-105448963D01*
X129846586Y-105616481D01*
X129657615Y-105824869D01*
X129512930Y-106066119D01*
X129418091Y-106330960D01*
X122668901Y-106330960D01*
X122711300Y-106161816D01*
X122725217Y-105879488D01*
X122683787Y-105599870D01*
X122588603Y-105333708D01*
X122521671Y-105208486D01*
X122277702Y-105136903D01*
X121464605Y-105950000D01*
X121478748Y-105964143D01*
X121299143Y-106143748D01*
X121285000Y-106129605D01*
X121270858Y-106143748D01*
X121091253Y-105964143D01*
X121105395Y-105950000D01*
X120292298Y-105136903D01*
X120048329Y-105208486D01*
X119927429Y-105463996D01*
X119858700Y-105738184D01*
X119844783Y-106020512D01*
X119886213Y-106300130D01*
X119981397Y-106566292D01*
X120046616Y-106688309D01*
X120033815Y-106698815D01*
X119954463Y-106795506D01*
X119895498Y-106905820D01*
X119877546Y-106965000D01*
X117042621Y-106965000D01*
X117009502Y-106855820D01*
X116950537Y-106745506D01*
X116871185Y-106648815D01*
X116774494Y-106569463D01*
X116664180Y-106510498D01*
X116622310Y-106497797D01*
X116723475Y-106396632D01*
X116885990Y-106153411D01*
X116997932Y-105883158D01*
X117055000Y-105596260D01*
X117055000Y-105303740D01*
X116997932Y-105016842D01*
X116973269Y-104957298D01*
X120471903Y-104957298D01*
X121285000Y-105770395D01*
X122098097Y-104957298D01*
X122026514Y-104713329D01*
X121771004Y-104592429D01*
X121496816Y-104523700D01*
X121214488Y-104509783D01*
X120934870Y-104551213D01*
X120668708Y-104646397D01*
X120543486Y-104713329D01*
X120471903Y-104957298D01*
X116973269Y-104957298D01*
X116885990Y-104746589D01*
X116723475Y-104503368D01*
X116709147Y-104489040D01*
X125608091Y-104489040D01*
X125702930Y-104753881D01*
X125847615Y-104995131D01*
X126036586Y-105203519D01*
X126262580Y-105371037D01*
X126516913Y-105491246D01*
X126650961Y-105531904D01*
X126873000Y-105409915D01*
X126873000Y-104267000D01*
X127127000Y-104267000D01*
X127127000Y-105409915D01*
X127349039Y-105531904D01*
X127483087Y-105491246D01*
X127737420Y-105371037D01*
X127963414Y-105203519D01*
X128152385Y-104995131D01*
X128297070Y-104753881D01*
X128391909Y-104489040D01*
X128270624Y-104267000D01*
X127127000Y-104267000D01*
X126873000Y-104267000D01*
X125729376Y-104267000D01*
X125608091Y-104489040D01*
X116709147Y-104489040D01*
X116516632Y-104296525D01*
X116273411Y-104134010D01*
X116003158Y-104022068D01*
X115716260Y-103965000D01*
X115423740Y-103965000D01*
X115136842Y-104022068D01*
X114866589Y-104134010D01*
X114623368Y-104296525D01*
X114570000Y-104349893D01*
X114516632Y-104296525D01*
X114273411Y-104134010D01*
X114003158Y-104022068D01*
X113716260Y-103965000D01*
X113423740Y-103965000D01*
X113136842Y-104022068D01*
X112866589Y-104134010D01*
X112623368Y-104296525D01*
X112416525Y-104503368D01*
X112254010Y-104746589D01*
X112142068Y-105016842D01*
X112085000Y-105303740D01*
X112085000Y-105596260D01*
X112142068Y-105883158D01*
X112254010Y-106153411D01*
X112416525Y-106396632D01*
X112623368Y-106603475D01*
X112786410Y-106712416D01*
X112721208Y-106921603D01*
X113570000Y-107770395D01*
X113584143Y-107756253D01*
X113763748Y-107935858D01*
X113749605Y-107950000D01*
X113763748Y-107964143D01*
X113584143Y-108143748D01*
X113570000Y-108129605D01*
X112721208Y-108978397D01*
X112798843Y-109227472D01*
X113062883Y-109353371D01*
X113346411Y-109425339D01*
X113638531Y-109440611D01*
X113928019Y-109398599D01*
X114203747Y-109300919D01*
X114279850Y-109260241D01*
X114365506Y-109330537D01*
X114475820Y-109389502D01*
X114595518Y-109425812D01*
X114720000Y-109438072D01*
X115665072Y-109438072D01*
X116109290Y-109882290D01*
X126269289Y-120042290D01*
X126300130Y-120079870D01*
X126337709Y-120110710D01*
X126450116Y-120202960D01*
X126621233Y-120294424D01*
X126806906Y-120350747D01*
X127000000Y-120369765D01*
X127048380Y-120365000D01*
X163781620Y-120365000D01*
X163830000Y-120369765D01*
X163878380Y-120365000D01*
X164023094Y-120350747D01*
X164208767Y-120294424D01*
X164379884Y-120202960D01*
X164529870Y-120079870D01*
X164560716Y-120042284D01*
X171408000Y-113195000D01*
X171591335Y-113195000D01*
X171868574Y-113139853D01*
X172129727Y-113031680D01*
X172364759Y-112874637D01*
X172494396Y-112745000D01*
X173909258Y-112745000D01*
X173891785Y-112802600D01*
X173869388Y-113030000D01*
X173891785Y-113257400D01*
X173958115Y-113476060D01*
X174065829Y-113677579D01*
X174210788Y-113854212D01*
X174387421Y-113999171D01*
X174588940Y-114106885D01*
X174807600Y-114173215D01*
X174978021Y-114190000D01*
X175541979Y-114190000D01*
X175712400Y-114173215D01*
X175931060Y-114106885D01*
X176102965Y-114015000D01*
X179295604Y-114015000D01*
X179425241Y-114144637D01*
X179660273Y-114301680D01*
X179921426Y-114409853D01*
X180198665Y-114465000D01*
X180481335Y-114465000D01*
X180758574Y-114409853D01*
X181019727Y-114301680D01*
X181254759Y-114144637D01*
X181384396Y-114015000D01*
X182831620Y-114015000D01*
X182880000Y-114019765D01*
X182928380Y-114015000D01*
X183073094Y-114000747D01*
X183258767Y-113944424D01*
X183429884Y-113852960D01*
X183579870Y-113729870D01*
X183610716Y-113692284D01*
X187352292Y-109950709D01*
X187389870Y-109919870D01*
X187512960Y-109769884D01*
X187604424Y-109598767D01*
X187660747Y-109413094D01*
X187675000Y-109268380D01*
X187675000Y-109268379D01*
X187679765Y-109220000D01*
X187675000Y-109171620D01*
X187675000Y-99108380D01*
X187679765Y-99060000D01*
X187660747Y-98866906D01*
X187604424Y-98681233D01*
X187512960Y-98510116D01*
X187449011Y-98432194D01*
X187389870Y-98360130D01*
X187352290Y-98329289D01*
X183610716Y-94587716D01*
X183579870Y-94550130D01*
X183429884Y-94427040D01*
X183258767Y-94335576D01*
X183073094Y-94279253D01*
X182928380Y-94265000D01*
X182880000Y-94260235D01*
X182831620Y-94265000D01*
X180647454Y-94265000D01*
X180629502Y-94205820D01*
X180570537Y-94095506D01*
X180491185Y-93998815D01*
X180394494Y-93919463D01*
X180284180Y-93860498D01*
X180225000Y-93842546D01*
X180225000Y-88615000D01*
X183105604Y-88615000D01*
X183235241Y-88744637D01*
X183470273Y-88901680D01*
X183731426Y-89009853D01*
X184008665Y-89065000D01*
X184291335Y-89065000D01*
X184568574Y-89009853D01*
X184829727Y-88901680D01*
X185064759Y-88744637D01*
X185186694Y-88622702D01*
X188336903Y-88622702D01*
X188408486Y-88866671D01*
X188663996Y-88987571D01*
X188938184Y-89056300D01*
X189220512Y-89070217D01*
X189500130Y-89028787D01*
X189766292Y-88933603D01*
X189891514Y-88866671D01*
X189963097Y-88622702D01*
X189150000Y-87809605D01*
X188336903Y-88622702D01*
X185186694Y-88622702D01*
X185264637Y-88544759D01*
X185421680Y-88309727D01*
X185529853Y-88048574D01*
X185585000Y-87771335D01*
X185585000Y-87700512D01*
X187709783Y-87700512D01*
X187751213Y-87980130D01*
X187846397Y-88246292D01*
X187913329Y-88371514D01*
X188157298Y-88443097D01*
X188970395Y-87630000D01*
X189329605Y-87630000D01*
X190142702Y-88443097D01*
X190386671Y-88371514D01*
X190507571Y-88116004D01*
X190576300Y-87841816D01*
X190590217Y-87559488D01*
X190548787Y-87279870D01*
X190453603Y-87013708D01*
X190386671Y-86888486D01*
X190142702Y-86816903D01*
X189329605Y-87630000D01*
X188970395Y-87630000D01*
X188157298Y-86816903D01*
X187913329Y-86888486D01*
X187792429Y-87143996D01*
X187723700Y-87418184D01*
X187709783Y-87700512D01*
X185585000Y-87700512D01*
X185585000Y-87588000D01*
X186535702Y-86637298D01*
X188336903Y-86637298D01*
X189150000Y-87450395D01*
X189963097Y-86637298D01*
X189891514Y-86393329D01*
X189636004Y-86272429D01*
X189361816Y-86203700D01*
X189079488Y-86189783D01*
X188799870Y-86231213D01*
X188533708Y-86326397D01*
X188408486Y-86393329D01*
X188336903Y-86637298D01*
X186535702Y-86637298D01*
X187352284Y-85820716D01*
X187389870Y-85789870D01*
X187512960Y-85639884D01*
X187604424Y-85468767D01*
X187660747Y-85283094D01*
X187675000Y-85138380D01*
X187675000Y-85138379D01*
X187679765Y-85090001D01*
X187675000Y-85041620D01*
X187675000Y-84081113D01*
X187718715Y-84067852D01*
X188002752Y-83916031D01*
X188251714Y-83711714D01*
X188396739Y-83535000D01*
X189181620Y-83535000D01*
X189230000Y-83539765D01*
X189278380Y-83535000D01*
X189423094Y-83520747D01*
X189608767Y-83464424D01*
X189779884Y-83372960D01*
X189929870Y-83249870D01*
X189960716Y-83212284D01*
X191162284Y-82010716D01*
X191199870Y-81979870D01*
X191322960Y-81829884D01*
X191414424Y-81658767D01*
X191470747Y-81473094D01*
X191470747Y-81473093D01*
X191489765Y-81280001D01*
X191485000Y-81231621D01*
X191485000Y-71168377D01*
X191489765Y-71119999D01*
X191481443Y-71035506D01*
X191470747Y-70926906D01*
X191414424Y-70741233D01*
X191322960Y-70570116D01*
X191199870Y-70420130D01*
X191162284Y-70389284D01*
X188690716Y-67917716D01*
X188659870Y-67880130D01*
X188509884Y-67757040D01*
X188338767Y-67665576D01*
X188153094Y-67609253D01*
X188008380Y-67595000D01*
X187960000Y-67590235D01*
X187911620Y-67595000D01*
X140744396Y-67595000D01*
X140614759Y-67465363D01*
X140379727Y-67308320D01*
X140118574Y-67200147D01*
X139841335Y-67145000D01*
X139558665Y-67145000D01*
X139281426Y-67200147D01*
X139020273Y-67308320D01*
X138785241Y-67465363D01*
X138585363Y-67665241D01*
X138428320Y-67900273D01*
X138320147Y-68161426D01*
X138265000Y-68438665D01*
X138265000Y-68721335D01*
X138320147Y-68998574D01*
X138428320Y-69259727D01*
X138585363Y-69494759D01*
X138785241Y-69694637D01*
X139020273Y-69851680D01*
X139281426Y-69959853D01*
X139558665Y-70015000D01*
X139841335Y-70015000D01*
X140118574Y-69959853D01*
X140379727Y-69851680D01*
X140614759Y-69694637D01*
X140744396Y-69565000D01*
X187552000Y-69565000D01*
X189515001Y-71528001D01*
X189515000Y-80872000D01*
X188822000Y-81565000D01*
X188396739Y-81565000D01*
X188251714Y-81388286D01*
X188121858Y-81281716D01*
X188335922Y-81076317D01*
X188520010Y-80812761D01*
X188649144Y-80518355D01*
X188680124Y-80390434D01*
X188560777Y-80137000D01*
X186817000Y-80137000D01*
X186817000Y-80157000D01*
X186563000Y-80157000D01*
X186563000Y-80137000D01*
X184819223Y-80137000D01*
X184699876Y-80390434D01*
X184730856Y-80518355D01*
X184859990Y-80812761D01*
X185044078Y-81076317D01*
X185258142Y-81281716D01*
X185128286Y-81388286D01*
X184923969Y-81637248D01*
X184772148Y-81921285D01*
X184678657Y-82229484D01*
X184647089Y-82550000D01*
X184678657Y-82870516D01*
X184772148Y-83178715D01*
X184923969Y-83462752D01*
X185128286Y-83711714D01*
X185377248Y-83916031D01*
X185661285Y-84067852D01*
X185705000Y-84081113D01*
X185705000Y-84682000D01*
X184192000Y-86195000D01*
X184008665Y-86195000D01*
X183731426Y-86250147D01*
X183470273Y-86358320D01*
X183235241Y-86515363D01*
X183105604Y-86645000D01*
X180114396Y-86645000D01*
X179984759Y-86515363D01*
X179749727Y-86358320D01*
X179488574Y-86250147D01*
X179211335Y-86195000D01*
X178928665Y-86195000D01*
X178651426Y-86250147D01*
X178390273Y-86358320D01*
X178155241Y-86515363D01*
X178025604Y-86645000D01*
X175034396Y-86645000D01*
X174975000Y-86585604D01*
X174975000Y-86134396D01*
X175104637Y-86004759D01*
X175261680Y-85769727D01*
X175369853Y-85508574D01*
X175425000Y-85231335D01*
X175425000Y-84948665D01*
X175369853Y-84671426D01*
X175261680Y-84410273D01*
X175104637Y-84175241D01*
X174904759Y-83975363D01*
X174669727Y-83818320D01*
X174408574Y-83710147D01*
X174131335Y-83655000D01*
X173848665Y-83655000D01*
X173571426Y-83710147D01*
X173310273Y-83818320D01*
X173075241Y-83975363D01*
X172875363Y-84175241D01*
X172718320Y-84410273D01*
X172610147Y-84671426D01*
X172555000Y-84948665D01*
X172555000Y-85231335D01*
X172610147Y-85508574D01*
X172718320Y-85769727D01*
X172875363Y-86004759D01*
X173005001Y-86134397D01*
X173005000Y-86585604D01*
X172875363Y-86715241D01*
X172718320Y-86950273D01*
X172610147Y-87211426D01*
X172555000Y-87488665D01*
X172555000Y-87771335D01*
X172610147Y-88048574D01*
X172718320Y-88309727D01*
X172875363Y-88544759D01*
X173075241Y-88744637D01*
X173310273Y-88901680D01*
X173571426Y-89009853D01*
X173848665Y-89065000D01*
X174131335Y-89065000D01*
X174408574Y-89009853D01*
X174669727Y-88901680D01*
X174904759Y-88744637D01*
X175034396Y-88615000D01*
X178025604Y-88615000D01*
X178155241Y-88744637D01*
X178255001Y-88811294D01*
X178255000Y-93842546D01*
X178195820Y-93860498D01*
X178085506Y-93919463D01*
X177988815Y-93998815D01*
X177909463Y-94095506D01*
X177850498Y-94205820D01*
X177814188Y-94325518D01*
X177801928Y-94450000D01*
X177801928Y-96050000D01*
X177814188Y-96174482D01*
X177850498Y-96294180D01*
X177909463Y-96404494D01*
X177988815Y-96501185D01*
X178085506Y-96580537D01*
X178195820Y-96639502D01*
X178315518Y-96675812D01*
X178323961Y-96676643D01*
X178125363Y-96875241D01*
X178105479Y-96905000D01*
X175124521Y-96905000D01*
X175104637Y-96875241D01*
X174904759Y-96675363D01*
X174669727Y-96518320D01*
X174408574Y-96410147D01*
X174131335Y-96355000D01*
X173848665Y-96355000D01*
X173571426Y-96410147D01*
X173310273Y-96518320D01*
X173075241Y-96675363D01*
X172875363Y-96875241D01*
X172855479Y-96905000D01*
X168973206Y-96905000D01*
X168882957Y-96769932D01*
X168660068Y-96547043D01*
X168619595Y-96520000D01*
X168660068Y-96492957D01*
X168882957Y-96270068D01*
X169058079Y-96007979D01*
X169178706Y-95716761D01*
X169240200Y-95407606D01*
X169240200Y-95092394D01*
X169178706Y-94783239D01*
X169058079Y-94492021D01*
X168882957Y-94229932D01*
X168660068Y-94007043D01*
X168619595Y-93980000D01*
X168660068Y-93952957D01*
X168882957Y-93730068D01*
X169058079Y-93467979D01*
X169178706Y-93176761D01*
X169240200Y-92867606D01*
X169240200Y-92552394D01*
X169178706Y-92243239D01*
X169058079Y-91952021D01*
X168882957Y-91689932D01*
X168660068Y-91467043D01*
X168619595Y-91440000D01*
X168660068Y-91412957D01*
X168882957Y-91190068D01*
X169058079Y-90927979D01*
X169178706Y-90636761D01*
X169240200Y-90327606D01*
X169240200Y-90012394D01*
X169178706Y-89703239D01*
X169058079Y-89412021D01*
X168882957Y-89149932D01*
X168660068Y-88927043D01*
X168534899Y-88843408D01*
X168570989Y-88740594D01*
X167640000Y-87809605D01*
X166709011Y-88740594D01*
X166745101Y-88843408D01*
X166619932Y-88927043D01*
X166397043Y-89149932D01*
X166221921Y-89412021D01*
X166101294Y-89703239D01*
X166039800Y-90012394D01*
X166039800Y-90327606D01*
X166101294Y-90636761D01*
X166221921Y-90927979D01*
X166397043Y-91190068D01*
X166619932Y-91412957D01*
X166660405Y-91440000D01*
X166619932Y-91467043D01*
X166397043Y-91689932D01*
X166221921Y-91952021D01*
X166101294Y-92243239D01*
X166039800Y-92552394D01*
X166039800Y-92867606D01*
X166071491Y-93026930D01*
X145683422Y-113415000D01*
X135754521Y-113415000D01*
X135734637Y-113385241D01*
X135534759Y-113185363D01*
X135299727Y-113028320D01*
X135038574Y-112920147D01*
X134761335Y-112865000D01*
X134478665Y-112865000D01*
X134201426Y-112920147D01*
X133940273Y-113028320D01*
X133705241Y-113185363D01*
X133505363Y-113385241D01*
X133485479Y-113415000D01*
X128134521Y-113415000D01*
X128114637Y-113385241D01*
X127914759Y-113185363D01*
X127679727Y-113028320D01*
X127418574Y-112920147D01*
X127141335Y-112865000D01*
X126858665Y-112865000D01*
X126581426Y-112920147D01*
X126320273Y-113028320D01*
X126085241Y-113185363D01*
X125885363Y-113385241D01*
X125728320Y-113620273D01*
X125620147Y-113881426D01*
X125565000Y-114158665D01*
X125565000Y-114441335D01*
X125620147Y-114718574D01*
X125728320Y-114979727D01*
X125885363Y-115214759D01*
X126085241Y-115414637D01*
X126320273Y-115571680D01*
X126581426Y-115679853D01*
X126858665Y-115735000D01*
X127141335Y-115735000D01*
X127418574Y-115679853D01*
X127679727Y-115571680D01*
X127914759Y-115414637D01*
X128114637Y-115214759D01*
X128134521Y-115185000D01*
X133485479Y-115185000D01*
X133505363Y-115214759D01*
X133705241Y-115414637D01*
X133940273Y-115571680D01*
X134201426Y-115679853D01*
X134478665Y-115735000D01*
X134761335Y-115735000D01*
X135038574Y-115679853D01*
X135299727Y-115571680D01*
X135534759Y-115414637D01*
X135734637Y-115214759D01*
X135754521Y-115185000D01*
X146006531Y-115185000D01*
X146050000Y-115189281D01*
X146093469Y-115185000D01*
X146093477Y-115185000D01*
X146223490Y-115172195D01*
X146390313Y-115121589D01*
X146544059Y-115039411D01*
X146678817Y-114928817D01*
X146706534Y-114895044D01*
X166065379Y-95536200D01*
X166071491Y-95566930D01*
X145683422Y-115955000D01*
X140834521Y-115955000D01*
X140814637Y-115925241D01*
X140614759Y-115725363D01*
X140379727Y-115568320D01*
X140118574Y-115460147D01*
X139841335Y-115405000D01*
X139558665Y-115405000D01*
X139281426Y-115460147D01*
X139020273Y-115568320D01*
X138785241Y-115725363D01*
X138585363Y-115925241D01*
X138565479Y-115955000D01*
X131944521Y-115955000D01*
X131924637Y-115925241D01*
X131724759Y-115725363D01*
X131489727Y-115568320D01*
X131228574Y-115460147D01*
X130951335Y-115405000D01*
X130668665Y-115405000D01*
X130391426Y-115460147D01*
X130130273Y-115568320D01*
X129895241Y-115725363D01*
X129695363Y-115925241D01*
X129538320Y-116160273D01*
X129430147Y-116421426D01*
X129375000Y-116698665D01*
X129375000Y-116981335D01*
X129430147Y-117258574D01*
X129538320Y-117519727D01*
X129695363Y-117754759D01*
X129895241Y-117954637D01*
X130130273Y-118111680D01*
X130391426Y-118219853D01*
X130668665Y-118275000D01*
X130951335Y-118275000D01*
X131228574Y-118219853D01*
X131489727Y-118111680D01*
X131724759Y-117954637D01*
X131924637Y-117754759D01*
X131944521Y-117725000D01*
X138565479Y-117725000D01*
X138585363Y-117754759D01*
X138785241Y-117954637D01*
X139020273Y-118111680D01*
X139281426Y-118219853D01*
X139558665Y-118275000D01*
X139841335Y-118275000D01*
X140118574Y-118219853D01*
X140379727Y-118111680D01*
X140614759Y-117954637D01*
X140814637Y-117754759D01*
X140834521Y-117725000D01*
X146006531Y-117725000D01*
X146050000Y-117729281D01*
X146093469Y-117725000D01*
X146093477Y-117725000D01*
X146223490Y-117712195D01*
X146390313Y-117661589D01*
X146544059Y-117579411D01*
X146678817Y-117468817D01*
X146706534Y-117435044D01*
X154176578Y-109965000D01*
X173871928Y-109965000D01*
X173875000Y-110204250D01*
X174033750Y-110363000D01*
X175133000Y-110363000D01*
X175133000Y-109488750D01*
X175387000Y-109488750D01*
X175387000Y-110363000D01*
X176486250Y-110363000D01*
X176645000Y-110204250D01*
X176648072Y-109965000D01*
X176635812Y-109840518D01*
X176599502Y-109720820D01*
X176540537Y-109610506D01*
X176461185Y-109513815D01*
X176364494Y-109434463D01*
X176254180Y-109375498D01*
X176134482Y-109339188D01*
X176010000Y-109326928D01*
X175545750Y-109330000D01*
X175387000Y-109488750D01*
X175133000Y-109488750D01*
X174974250Y-109330000D01*
X174510000Y-109326928D01*
X174385518Y-109339188D01*
X174265820Y-109375498D01*
X174155506Y-109434463D01*
X174058815Y-109513815D01*
X173979463Y-109610506D01*
X173920498Y-109720820D01*
X173884188Y-109840518D01*
X173871928Y-109965000D01*
X154176578Y-109965000D01*
X156349184Y-107792394D01*
X166039800Y-107792394D01*
X166039800Y-108107606D01*
X166101294Y-108416761D01*
X166221921Y-108707979D01*
X166397043Y-108970068D01*
X166619932Y-109192957D01*
X166882021Y-109368079D01*
X167173239Y-109488706D01*
X167482394Y-109550200D01*
X167797606Y-109550200D01*
X168106761Y-109488706D01*
X168397979Y-109368079D01*
X168660068Y-109192957D01*
X168830323Y-109022702D01*
X179526903Y-109022702D01*
X179598486Y-109266671D01*
X179853996Y-109387571D01*
X180128184Y-109456300D01*
X180410512Y-109470217D01*
X180690130Y-109428787D01*
X180956292Y-109333603D01*
X181081514Y-109266671D01*
X181153097Y-109022702D01*
X180340000Y-108209605D01*
X179526903Y-109022702D01*
X168830323Y-109022702D01*
X168882957Y-108970068D01*
X169058079Y-108707979D01*
X169178706Y-108416761D01*
X169240200Y-108107606D01*
X169240200Y-107792394D01*
X169232305Y-107752702D01*
X170636903Y-107752702D01*
X170708486Y-107996671D01*
X170963996Y-108117571D01*
X171238184Y-108186300D01*
X171520512Y-108200217D01*
X171800130Y-108158787D01*
X171963083Y-108100512D01*
X178899783Y-108100512D01*
X178941213Y-108380130D01*
X179036397Y-108646292D01*
X179103329Y-108771514D01*
X179347298Y-108843097D01*
X180160395Y-108030000D01*
X180519605Y-108030000D01*
X181332702Y-108843097D01*
X181576671Y-108771514D01*
X181697571Y-108516004D01*
X181766300Y-108241816D01*
X181780217Y-107959488D01*
X181738787Y-107679870D01*
X181643603Y-107413708D01*
X181576671Y-107288486D01*
X181332702Y-107216903D01*
X180519605Y-108030000D01*
X180160395Y-108030000D01*
X179347298Y-107216903D01*
X179103329Y-107288486D01*
X178982429Y-107543996D01*
X178913700Y-107818184D01*
X178899783Y-108100512D01*
X171963083Y-108100512D01*
X172066292Y-108063603D01*
X172191514Y-107996671D01*
X172263097Y-107752702D01*
X171450000Y-106939605D01*
X170636903Y-107752702D01*
X169232305Y-107752702D01*
X169178706Y-107483239D01*
X169058079Y-107192021D01*
X168882957Y-106929932D01*
X168783537Y-106830512D01*
X170009783Y-106830512D01*
X170051213Y-107110130D01*
X170146397Y-107376292D01*
X170213329Y-107501514D01*
X170457298Y-107573097D01*
X171270395Y-106760000D01*
X171629605Y-106760000D01*
X172442702Y-107573097D01*
X172686671Y-107501514D01*
X172807571Y-107246004D01*
X172859886Y-107037298D01*
X179526903Y-107037298D01*
X180340000Y-107850395D01*
X181153097Y-107037298D01*
X181081514Y-106793329D01*
X180826004Y-106672429D01*
X180551816Y-106603700D01*
X180269488Y-106589783D01*
X179989870Y-106631213D01*
X179723708Y-106726397D01*
X179598486Y-106793329D01*
X179526903Y-107037298D01*
X172859886Y-107037298D01*
X172876300Y-106971816D01*
X172890217Y-106689488D01*
X172848787Y-106409870D01*
X172753603Y-106143708D01*
X172686671Y-106018486D01*
X172442702Y-105946903D01*
X171629605Y-106760000D01*
X171270395Y-106760000D01*
X170457298Y-105946903D01*
X170213329Y-106018486D01*
X170092429Y-106273996D01*
X170023700Y-106548184D01*
X170009783Y-106830512D01*
X168783537Y-106830512D01*
X168660068Y-106707043D01*
X168534899Y-106623408D01*
X168570989Y-106520594D01*
X167640000Y-105589605D01*
X166709011Y-106520594D01*
X166745101Y-106623408D01*
X166619932Y-106707043D01*
X166397043Y-106929932D01*
X166221921Y-107192021D01*
X166101294Y-107483239D01*
X166039800Y-107792394D01*
X156349184Y-107792394D01*
X158667607Y-105473971D01*
X166033330Y-105473971D01*
X166076682Y-105786188D01*
X166180112Y-106083948D01*
X166268562Y-106249428D01*
X166529406Y-106340989D01*
X167460395Y-105410000D01*
X167819605Y-105410000D01*
X168750594Y-106340989D01*
X169011438Y-106249428D01*
X169148851Y-105965744D01*
X169200523Y-105767298D01*
X170636903Y-105767298D01*
X171450000Y-106580395D01*
X172263097Y-105767298D01*
X172191514Y-105523329D01*
X171936004Y-105402429D01*
X171661816Y-105333700D01*
X171379488Y-105319783D01*
X171099870Y-105361213D01*
X170833708Y-105456397D01*
X170708486Y-105523329D01*
X170636903Y-105767298D01*
X169200523Y-105767298D01*
X169228279Y-105660704D01*
X169246670Y-105346029D01*
X169203318Y-105033812D01*
X169099888Y-104736052D01*
X169011438Y-104570572D01*
X168750594Y-104479011D01*
X167819605Y-105410000D01*
X167460395Y-105410000D01*
X166529406Y-104479011D01*
X166268562Y-104570572D01*
X166131149Y-104854256D01*
X166051721Y-105159296D01*
X166033330Y-105473971D01*
X158667607Y-105473971D01*
X166065379Y-98076200D01*
X166101294Y-98256761D01*
X166221921Y-98547979D01*
X166397043Y-98810068D01*
X166619932Y-99032957D01*
X166660405Y-99060000D01*
X166619932Y-99087043D01*
X166397043Y-99309932D01*
X166221921Y-99572021D01*
X166101294Y-99863239D01*
X166039800Y-100172394D01*
X166039800Y-100487606D01*
X166101294Y-100796761D01*
X166221921Y-101087979D01*
X166397043Y-101350068D01*
X166619932Y-101572957D01*
X166660405Y-101600000D01*
X166619932Y-101627043D01*
X166397043Y-101849932D01*
X166221921Y-102112021D01*
X166101294Y-102403239D01*
X166039800Y-102712394D01*
X166039800Y-103027606D01*
X166101294Y-103336761D01*
X166221921Y-103627979D01*
X166397043Y-103890068D01*
X166619932Y-104112957D01*
X166745101Y-104196592D01*
X166709011Y-104299406D01*
X167640000Y-105230395D01*
X168570989Y-104299406D01*
X168534899Y-104196592D01*
X168660068Y-104112957D01*
X168882957Y-103890068D01*
X168901242Y-103862702D01*
X178426903Y-103862702D01*
X178498486Y-104106671D01*
X178753996Y-104227571D01*
X179028184Y-104296300D01*
X179310512Y-104310217D01*
X179590130Y-104268787D01*
X179856292Y-104173603D01*
X179981514Y-104106671D01*
X180053097Y-103862702D01*
X179240000Y-103049605D01*
X178426903Y-103862702D01*
X168901242Y-103862702D01*
X169058079Y-103627979D01*
X169178706Y-103336761D01*
X169240200Y-103027606D01*
X169240200Y-102940512D01*
X177799783Y-102940512D01*
X177841213Y-103220130D01*
X177936397Y-103486292D01*
X178003329Y-103611514D01*
X178247298Y-103683097D01*
X179060395Y-102870000D01*
X179419605Y-102870000D01*
X180232702Y-103683097D01*
X180476671Y-103611514D01*
X180597571Y-103356004D01*
X180666300Y-103081816D01*
X180680217Y-102799488D01*
X180638787Y-102519870D01*
X180543603Y-102253708D01*
X180476671Y-102128486D01*
X180232702Y-102056903D01*
X179419605Y-102870000D01*
X179060395Y-102870000D01*
X178247298Y-102056903D01*
X178003329Y-102128486D01*
X177882429Y-102383996D01*
X177813700Y-102658184D01*
X177799783Y-102940512D01*
X169240200Y-102940512D01*
X169240200Y-102712394D01*
X169178706Y-102403239D01*
X169058079Y-102112021D01*
X168882957Y-101849932D01*
X168660068Y-101627043D01*
X168619595Y-101600000D01*
X168660068Y-101572957D01*
X168882957Y-101350068D01*
X169058079Y-101087979D01*
X169178706Y-100796761D01*
X169240200Y-100487606D01*
X169240200Y-100172394D01*
X169178706Y-99863239D01*
X169058079Y-99572021D01*
X168882957Y-99309932D01*
X168660068Y-99087043D01*
X168619595Y-99060000D01*
X168660068Y-99032957D01*
X168882957Y-98810068D01*
X168973206Y-98675000D01*
X172855479Y-98675000D01*
X172875363Y-98704759D01*
X173075241Y-98904637D01*
X173310273Y-99061680D01*
X173571426Y-99169853D01*
X173848665Y-99225000D01*
X174131335Y-99225000D01*
X174408574Y-99169853D01*
X174669727Y-99061680D01*
X174904759Y-98904637D01*
X175104637Y-98704759D01*
X175124521Y-98675000D01*
X178105479Y-98675000D01*
X178125363Y-98704759D01*
X178325241Y-98904637D01*
X178557759Y-99060000D01*
X178325241Y-99215363D01*
X178125363Y-99415241D01*
X177968320Y-99650273D01*
X177860147Y-99911426D01*
X177805000Y-100188665D01*
X177805000Y-100471335D01*
X177860147Y-100748574D01*
X177968320Y-101009727D01*
X178125363Y-101244759D01*
X178325241Y-101444637D01*
X178559128Y-101600915D01*
X178498486Y-101633329D01*
X178426903Y-101877298D01*
X179240000Y-102690395D01*
X180053097Y-101877298D01*
X179981514Y-101633329D01*
X179917008Y-101602806D01*
X179919727Y-101601680D01*
X180154759Y-101444637D01*
X180354637Y-101244759D01*
X180511680Y-101009727D01*
X180619853Y-100748574D01*
X180675000Y-100471335D01*
X180675000Y-100188665D01*
X180619853Y-99911426D01*
X180511680Y-99650273D01*
X180354637Y-99415241D01*
X180154759Y-99215363D01*
X179922241Y-99060000D01*
X180154759Y-98904637D01*
X180354637Y-98704759D01*
X180511680Y-98469727D01*
X180619853Y-98208574D01*
X180675000Y-97931335D01*
X180675000Y-97648665D01*
X180619853Y-97371426D01*
X180511680Y-97110273D01*
X180354637Y-96875241D01*
X180156039Y-96676643D01*
X180164482Y-96675812D01*
X180284180Y-96639502D01*
X180394494Y-96580537D01*
X180491185Y-96501185D01*
X180570537Y-96404494D01*
X180629502Y-96294180D01*
X180647454Y-96235000D01*
X182472000Y-96235000D01*
X185705001Y-99468002D01*
X185705000Y-108811999D01*
X182472000Y-112045000D01*
X181384396Y-112045000D01*
X181254759Y-111915363D01*
X181019727Y-111758320D01*
X180758574Y-111650147D01*
X180481335Y-111595000D01*
X180198665Y-111595000D01*
X179921426Y-111650147D01*
X179660273Y-111758320D01*
X179425241Y-111915363D01*
X179295604Y-112045000D01*
X176610742Y-112045000D01*
X176628215Y-111987400D01*
X176650612Y-111760000D01*
X176628215Y-111532600D01*
X176564907Y-111323902D01*
X176599502Y-111259180D01*
X176635812Y-111139482D01*
X176648072Y-111015000D01*
X176645000Y-110775750D01*
X176486250Y-110617000D01*
X175713109Y-110617000D01*
X175712400Y-110616785D01*
X175541979Y-110600000D01*
X174978021Y-110600000D01*
X174807600Y-110616785D01*
X174806891Y-110617000D01*
X174033750Y-110617000D01*
X173875750Y-110775000D01*
X172494396Y-110775000D01*
X172364759Y-110645363D01*
X172129727Y-110488320D01*
X171868574Y-110380147D01*
X171591335Y-110325000D01*
X171308665Y-110325000D01*
X171031426Y-110380147D01*
X170770273Y-110488320D01*
X170535241Y-110645363D01*
X170335363Y-110845241D01*
X170178320Y-111080273D01*
X170070147Y-111341426D01*
X170015000Y-111618665D01*
X170015000Y-111802000D01*
X163422000Y-118395000D01*
X127408001Y-118395000D01*
X117948000Y-108935000D01*
X119877546Y-108935000D01*
X119895498Y-108994180D01*
X119954463Y-109104494D01*
X120033815Y-109201185D01*
X120130506Y-109280537D01*
X120240820Y-109339502D01*
X120360518Y-109375812D01*
X120485000Y-109388072D01*
X122085000Y-109388072D01*
X122209482Y-109375812D01*
X122329180Y-109339502D01*
X122439494Y-109280537D01*
X122536185Y-109201185D01*
X122615537Y-109104494D01*
X122674502Y-108994180D01*
X122692454Y-108935000D01*
X125322000Y-108935000D01*
X126269284Y-109882284D01*
X126300130Y-109919870D01*
X126450116Y-110042960D01*
X126621233Y-110134424D01*
X126763691Y-110177638D01*
X126806905Y-110190747D01*
X126999999Y-110209765D01*
X127048379Y-110205000D01*
X134571620Y-110205000D01*
X134620000Y-110209765D01*
X134668380Y-110205000D01*
X143461620Y-110205000D01*
X143510000Y-110209765D01*
X143558380Y-110205000D01*
X143703094Y-110190747D01*
X143888767Y-110134424D01*
X144059884Y-110042960D01*
X144209870Y-109919870D01*
X144240716Y-109882284D01*
X144581028Y-109541972D01*
X144622394Y-109550200D01*
X144937606Y-109550200D01*
X145246761Y-109488706D01*
X145537979Y-109368079D01*
X145800068Y-109192957D01*
X146022957Y-108970068D01*
X146198079Y-108707979D01*
X146318706Y-108416761D01*
X146380200Y-108107606D01*
X146380200Y-107792394D01*
X146318706Y-107483239D01*
X146198079Y-107192021D01*
X146022957Y-106929932D01*
X145800068Y-106707043D01*
X145674899Y-106623408D01*
X145710989Y-106520594D01*
X144780000Y-105589605D01*
X143849011Y-106520594D01*
X143885101Y-106623408D01*
X143759932Y-106707043D01*
X143537043Y-106929932D01*
X143361921Y-107192021D01*
X143241294Y-107483239D01*
X143179800Y-107792394D01*
X143179800Y-108107606D01*
X143188028Y-108148972D01*
X143102000Y-108235000D01*
X136998000Y-108235000D01*
X137822284Y-107410716D01*
X137859870Y-107379870D01*
X137982960Y-107229884D01*
X138074424Y-107058767D01*
X138130747Y-106873094D01*
X138145000Y-106728380D01*
X138145000Y-106728379D01*
X138149765Y-106680001D01*
X138145000Y-106631623D01*
X138145000Y-96568380D01*
X138149765Y-96520000D01*
X138130747Y-96326906D01*
X138074424Y-96141233D01*
X137982960Y-95970116D01*
X137859870Y-95820130D01*
X137822290Y-95789289D01*
X132810716Y-90777716D01*
X132779870Y-90740130D01*
X132629884Y-90617040D01*
X132458767Y-90525576D01*
X132273094Y-90469253D01*
X132128380Y-90455000D01*
X132080000Y-90450235D01*
X132031620Y-90455000D01*
X127468072Y-90455000D01*
X127468072Y-90340000D01*
X127455812Y-90215518D01*
X127419502Y-90095820D01*
X127360537Y-89985506D01*
X127281185Y-89888815D01*
X127184494Y-89809463D01*
X127074180Y-89750498D01*
X126954482Y-89714188D01*
X126830000Y-89701928D01*
X124630000Y-89701928D01*
X124505518Y-89714188D01*
X124385820Y-89750498D01*
X124275506Y-89809463D01*
X124178815Y-89888815D01*
X124099463Y-89985506D01*
X124040498Y-90095820D01*
X124004188Y-90215518D01*
X123991928Y-90340000D01*
X123991928Y-90455000D01*
X112875107Y-90455000D01*
X112745000Y-90324893D01*
X112745000Y-86562621D01*
X112854180Y-86529502D01*
X112964494Y-86470537D01*
X113061185Y-86391185D01*
X113140537Y-86294494D01*
X113199502Y-86184180D01*
X113235812Y-86064482D01*
X113248072Y-85940000D01*
X113248072Y-84240000D01*
X113235812Y-84115518D01*
X113199502Y-83995820D01*
X113140537Y-83885506D01*
X113061185Y-83788815D01*
X112964494Y-83709463D01*
X112854180Y-83650498D01*
X112781620Y-83628487D01*
X112913475Y-83496632D01*
X112954656Y-83435000D01*
X124037591Y-83435000D01*
X123995000Y-83649117D01*
X123995000Y-83990883D01*
X124061675Y-84326081D01*
X124192463Y-84641831D01*
X124382337Y-84925998D01*
X124624002Y-85167663D01*
X124908169Y-85357537D01*
X125223919Y-85488325D01*
X125559117Y-85555000D01*
X125900883Y-85555000D01*
X126161568Y-85503147D01*
X128883470Y-88225049D01*
X128911183Y-88258817D01*
X128944951Y-88286530D01*
X128944953Y-88286532D01*
X129045941Y-88369411D01*
X129199686Y-88451589D01*
X129258493Y-88469428D01*
X129366510Y-88502195D01*
X129496523Y-88515000D01*
X129496531Y-88515000D01*
X129540000Y-88519281D01*
X129583469Y-88515000D01*
X137055495Y-88515000D01*
X137056155Y-88516235D01*
X137159446Y-88642095D01*
X137075506Y-88686963D01*
X136978815Y-88766315D01*
X136899463Y-88863006D01*
X136840498Y-88973320D01*
X136804188Y-89093018D01*
X136791928Y-89217500D01*
X136791928Y-91122500D01*
X136804188Y-91246982D01*
X136840498Y-91366680D01*
X136899463Y-91476994D01*
X136978815Y-91573685D01*
X137075506Y-91653037D01*
X137185820Y-91712002D01*
X137305518Y-91748312D01*
X137430000Y-91760572D01*
X138768993Y-91760572D01*
X138815000Y-91806579D01*
X138815001Y-105545478D01*
X138785241Y-105565363D01*
X138585363Y-105765241D01*
X138428320Y-106000273D01*
X138320147Y-106261426D01*
X138265000Y-106538665D01*
X138265000Y-106821335D01*
X138320147Y-107098574D01*
X138428320Y-107359727D01*
X138585363Y-107594759D01*
X138785241Y-107794637D01*
X139020273Y-107951680D01*
X139281426Y-108059853D01*
X139558665Y-108115000D01*
X139841335Y-108115000D01*
X140118574Y-108059853D01*
X140379727Y-107951680D01*
X140614759Y-107794637D01*
X140814637Y-107594759D01*
X140971680Y-107359727D01*
X141079853Y-107098574D01*
X141135000Y-106821335D01*
X141135000Y-106538665D01*
X141079853Y-106261426D01*
X140971680Y-106000273D01*
X140814637Y-105765241D01*
X140614759Y-105565363D01*
X140585000Y-105545479D01*
X140585000Y-105473971D01*
X143173330Y-105473971D01*
X143216682Y-105786188D01*
X143320112Y-106083948D01*
X143408562Y-106249428D01*
X143669406Y-106340989D01*
X144600395Y-105410000D01*
X144959605Y-105410000D01*
X145890594Y-106340989D01*
X146151438Y-106249428D01*
X146288851Y-105965744D01*
X146368279Y-105660704D01*
X146386670Y-105346029D01*
X146343318Y-105033812D01*
X146239888Y-104736052D01*
X146151438Y-104570572D01*
X145890594Y-104479011D01*
X144959605Y-105410000D01*
X144600395Y-105410000D01*
X143669406Y-104479011D01*
X143408562Y-104570572D01*
X143271149Y-104854256D01*
X143191721Y-105159296D01*
X143173330Y-105473971D01*
X140585000Y-105473971D01*
X140585000Y-97632394D01*
X143179800Y-97632394D01*
X143179800Y-97947606D01*
X143241294Y-98256761D01*
X143361921Y-98547979D01*
X143537043Y-98810068D01*
X143759932Y-99032957D01*
X143800405Y-99060000D01*
X143759932Y-99087043D01*
X143537043Y-99309932D01*
X143361921Y-99572021D01*
X143241294Y-99863239D01*
X143179800Y-100172394D01*
X143179800Y-100487606D01*
X143241294Y-100796761D01*
X143361921Y-101087979D01*
X143537043Y-101350068D01*
X143759932Y-101572957D01*
X143800405Y-101600000D01*
X143759932Y-101627043D01*
X143537043Y-101849932D01*
X143361921Y-102112021D01*
X143241294Y-102403239D01*
X143179800Y-102712394D01*
X143179800Y-103027606D01*
X143241294Y-103336761D01*
X143361921Y-103627979D01*
X143537043Y-103890068D01*
X143759932Y-104112957D01*
X143885101Y-104196592D01*
X143849011Y-104299406D01*
X144780000Y-105230395D01*
X145710989Y-104299406D01*
X145674899Y-104196592D01*
X145800068Y-104112957D01*
X146022957Y-103890068D01*
X146198079Y-103627979D01*
X146318706Y-103336761D01*
X146380200Y-103027606D01*
X146380200Y-102712394D01*
X146318706Y-102403239D01*
X146198079Y-102112021D01*
X146022957Y-101849932D01*
X145800068Y-101627043D01*
X145759595Y-101600000D01*
X145800068Y-101572957D01*
X146022957Y-101350068D01*
X146198079Y-101087979D01*
X146318706Y-100796761D01*
X146380200Y-100487606D01*
X146380200Y-100172394D01*
X146318706Y-99863239D01*
X146198079Y-99572021D01*
X146022957Y-99309932D01*
X145800068Y-99087043D01*
X145759595Y-99060000D01*
X145800068Y-99032957D01*
X146022957Y-98810068D01*
X146198079Y-98547979D01*
X146318706Y-98256761D01*
X146380200Y-97947606D01*
X146380200Y-97632394D01*
X146318706Y-97323239D01*
X146198079Y-97032021D01*
X146022957Y-96769932D01*
X145800068Y-96547043D01*
X145674899Y-96463408D01*
X145710989Y-96360594D01*
X144780000Y-95429605D01*
X143849011Y-96360594D01*
X143885101Y-96463408D01*
X143759932Y-96547043D01*
X143537043Y-96769932D01*
X143361921Y-97032021D01*
X143241294Y-97323239D01*
X143179800Y-97632394D01*
X140585000Y-97632394D01*
X140585000Y-95313971D01*
X143173330Y-95313971D01*
X143216682Y-95626188D01*
X143320112Y-95923948D01*
X143408562Y-96089428D01*
X143669406Y-96180989D01*
X144600395Y-95250000D01*
X144959605Y-95250000D01*
X145890594Y-96180989D01*
X146151438Y-96089428D01*
X146288851Y-95805744D01*
X146368279Y-95500704D01*
X146386670Y-95186029D01*
X146343318Y-94873812D01*
X146239888Y-94576052D01*
X146151438Y-94410572D01*
X145890594Y-94319011D01*
X144959605Y-95250000D01*
X144600395Y-95250000D01*
X143669406Y-94319011D01*
X143408562Y-94410572D01*
X143271149Y-94694256D01*
X143191721Y-94999296D01*
X143173330Y-95313971D01*
X140585000Y-95313971D01*
X140585000Y-91483465D01*
X140589281Y-91439999D01*
X140585000Y-91396533D01*
X140585000Y-91396523D01*
X140572195Y-91266510D01*
X140521589Y-91099687D01*
X140439411Y-90945941D01*
X140328817Y-90811183D01*
X140295050Y-90783471D01*
X140068072Y-90556493D01*
X140068072Y-89217500D01*
X140055812Y-89093018D01*
X140019502Y-88973320D01*
X139960537Y-88863006D01*
X139881185Y-88766315D01*
X139784494Y-88686963D01*
X139700554Y-88642095D01*
X139803845Y-88516235D01*
X139951255Y-88240449D01*
X140042030Y-87941204D01*
X140072681Y-87630000D01*
X140042030Y-87318796D01*
X139951255Y-87019551D01*
X139803845Y-86743765D01*
X139605463Y-86502037D01*
X139426101Y-86354837D01*
X139611315Y-86199437D01*
X139805969Y-85956923D01*
X139949571Y-85681094D01*
X140020563Y-85462980D01*
X139900594Y-85217000D01*
X138557000Y-85217000D01*
X138557000Y-85237000D01*
X138303000Y-85237000D01*
X138303000Y-85217000D01*
X136959406Y-85217000D01*
X136839437Y-85462980D01*
X136910429Y-85681094D01*
X137054031Y-85956923D01*
X137248685Y-86199437D01*
X137433899Y-86354837D01*
X137254537Y-86502037D01*
X137056155Y-86743765D01*
X137055495Y-86745000D01*
X129906579Y-86745000D01*
X128600619Y-85439040D01*
X129418091Y-85439040D01*
X129512930Y-85703881D01*
X129657615Y-85945131D01*
X129846586Y-86153519D01*
X130072580Y-86321037D01*
X130326913Y-86441246D01*
X130460961Y-86481904D01*
X130683000Y-86359915D01*
X130683000Y-85217000D01*
X130937000Y-85217000D01*
X130937000Y-86359915D01*
X131159039Y-86481904D01*
X131293087Y-86441246D01*
X131547420Y-86321037D01*
X131773414Y-86153519D01*
X131962385Y-85945131D01*
X132107070Y-85703881D01*
X132201909Y-85439040D01*
X132080624Y-85217000D01*
X130937000Y-85217000D01*
X130683000Y-85217000D01*
X129539376Y-85217000D01*
X129418091Y-85439040D01*
X128600619Y-85439040D01*
X127902539Y-84740960D01*
X129418091Y-84740960D01*
X129539376Y-84963000D01*
X130683000Y-84963000D01*
X130683000Y-83820085D01*
X130937000Y-83820085D01*
X130937000Y-84963000D01*
X132080624Y-84963000D01*
X132201909Y-84740960D01*
X132193337Y-84717020D01*
X136839437Y-84717020D01*
X136959406Y-84963000D01*
X138303000Y-84963000D01*
X138303000Y-83664430D01*
X138557000Y-83664430D01*
X138557000Y-84963000D01*
X139900594Y-84963000D01*
X140020563Y-84717020D01*
X139949571Y-84498906D01*
X139805969Y-84223077D01*
X139611315Y-83980563D01*
X139373089Y-83780684D01*
X139100446Y-83631121D01*
X138803863Y-83537622D01*
X138557000Y-83664430D01*
X138303000Y-83664430D01*
X138056137Y-83537622D01*
X137759554Y-83631121D01*
X137486911Y-83780684D01*
X137248685Y-83980563D01*
X137054031Y-84223077D01*
X136910429Y-84498906D01*
X136839437Y-84717020D01*
X132193337Y-84717020D01*
X132107070Y-84476119D01*
X131962385Y-84234869D01*
X131773414Y-84026481D01*
X131547420Y-83858963D01*
X131293087Y-83738754D01*
X131159039Y-83698096D01*
X130937000Y-83820085D01*
X130683000Y-83820085D01*
X130460961Y-83698096D01*
X130326913Y-83738754D01*
X130072580Y-83858963D01*
X129846586Y-84026481D01*
X129657615Y-84234869D01*
X129512930Y-84476119D01*
X129418091Y-84740960D01*
X127902539Y-84740960D01*
X127413147Y-84251568D01*
X127465000Y-83990883D01*
X127465000Y-83649117D01*
X127398325Y-83313919D01*
X127267537Y-82998169D01*
X127077663Y-82714002D01*
X126835998Y-82472337D01*
X126551831Y-82282463D01*
X126236081Y-82151675D01*
X125900883Y-82085000D01*
X125559117Y-82085000D01*
X125298432Y-82136854D01*
X125116534Y-81954956D01*
X125088817Y-81921183D01*
X124954059Y-81810589D01*
X124800313Y-81728411D01*
X124633490Y-81677805D01*
X124503477Y-81665000D01*
X124503469Y-81665000D01*
X124460000Y-81660719D01*
X124416531Y-81665000D01*
X112954656Y-81665000D01*
X112913475Y-81603368D01*
X112706632Y-81396525D01*
X112463411Y-81234010D01*
X112193158Y-81122068D01*
X111906260Y-81065000D01*
X111613740Y-81065000D01*
X111326842Y-81122068D01*
X111056589Y-81234010D01*
X110813368Y-81396525D01*
X110606525Y-81603368D01*
X110444010Y-81846589D01*
X110332068Y-82116842D01*
X110275000Y-82403740D01*
X110275000Y-82696260D01*
X110332068Y-82983158D01*
X110444010Y-83253411D01*
X110606525Y-83496632D01*
X110738380Y-83628487D01*
X110665820Y-83650498D01*
X110555506Y-83709463D01*
X110458815Y-83788815D01*
X110379463Y-83885506D01*
X110320498Y-83995820D01*
X110284188Y-84115518D01*
X110271928Y-84240000D01*
X106070000Y-84240000D01*
X106070000Y-80922702D01*
X138886903Y-80922702D01*
X138958486Y-81166671D01*
X139213996Y-81287571D01*
X139488184Y-81356300D01*
X139770512Y-81370217D01*
X140050130Y-81328787D01*
X140316292Y-81233603D01*
X140441514Y-81166671D01*
X140513097Y-80922702D01*
X139700000Y-80109605D01*
X138886903Y-80922702D01*
X106070000Y-80922702D01*
X106070000Y-80000512D01*
X138259783Y-80000512D01*
X138301213Y-80280130D01*
X138396397Y-80546292D01*
X138463329Y-80671514D01*
X138707298Y-80743097D01*
X139520395Y-79930000D01*
X139879605Y-79930000D01*
X140692702Y-80743097D01*
X140936671Y-80671514D01*
X141057571Y-80416004D01*
X141126300Y-80141816D01*
X141140217Y-79859488D01*
X141098787Y-79579870D01*
X141003603Y-79313708D01*
X140936671Y-79188486D01*
X140692702Y-79116903D01*
X139879605Y-79930000D01*
X139520395Y-79930000D01*
X138707298Y-79116903D01*
X138463329Y-79188486D01*
X138342429Y-79443996D01*
X138273700Y-79718184D01*
X138259783Y-80000512D01*
X106070000Y-80000512D01*
X106070000Y-78937298D01*
X138886903Y-78937298D01*
X139700000Y-79750395D01*
X140513097Y-78937298D01*
X140441514Y-78693329D01*
X140186004Y-78572429D01*
X139911816Y-78503700D01*
X139629488Y-78489783D01*
X139349870Y-78531213D01*
X139083708Y-78626397D01*
X138958486Y-78693329D01*
X138886903Y-78937298D01*
X106070000Y-78937298D01*
X106070000Y-75350000D01*
X110271928Y-75350000D01*
X110271928Y-77050000D01*
X110284188Y-77174482D01*
X110320498Y-77294180D01*
X110379463Y-77404494D01*
X110458815Y-77501185D01*
X110555506Y-77580537D01*
X110665820Y-77639502D01*
X110785518Y-77675812D01*
X110910000Y-77688072D01*
X112610000Y-77688072D01*
X112734482Y-77675812D01*
X112854180Y-77639502D01*
X112964494Y-77580537D01*
X113061185Y-77501185D01*
X113140537Y-77404494D01*
X113199502Y-77294180D01*
X113235812Y-77174482D01*
X113244625Y-77085000D01*
X129496531Y-77085000D01*
X129540000Y-77089281D01*
X129583469Y-77085000D01*
X129583477Y-77085000D01*
X129713490Y-77072195D01*
X129880313Y-77021589D01*
X130034059Y-76939411D01*
X130168817Y-76828817D01*
X130196534Y-76795044D01*
X130633561Y-76358017D01*
X130668665Y-76365000D01*
X130951335Y-76365000D01*
X131228574Y-76309853D01*
X131489727Y-76201680D01*
X131724759Y-76044637D01*
X131924637Y-75844759D01*
X131944521Y-75815000D01*
X138565479Y-75815000D01*
X138585363Y-75844759D01*
X138785241Y-76044637D01*
X139020273Y-76201680D01*
X139281426Y-76309853D01*
X139558665Y-76365000D01*
X139841335Y-76365000D01*
X140118574Y-76309853D01*
X140379727Y-76201680D01*
X140614759Y-76044637D01*
X140814637Y-75844759D01*
X140834521Y-75815000D01*
X143446794Y-75815000D01*
X143537043Y-75950068D01*
X143759932Y-76172957D01*
X143800405Y-76200000D01*
X143759932Y-76227043D01*
X143537043Y-76449932D01*
X143361921Y-76712021D01*
X143241294Y-77003239D01*
X143179800Y-77312394D01*
X143179800Y-77627606D01*
X143241294Y-77936761D01*
X143361921Y-78227979D01*
X143537043Y-78490068D01*
X143759932Y-78712957D01*
X143800405Y-78740000D01*
X143759932Y-78767043D01*
X143537043Y-78989932D01*
X143361921Y-79252021D01*
X143241294Y-79543239D01*
X143179800Y-79852394D01*
X143179800Y-80167606D01*
X143241294Y-80476761D01*
X143361921Y-80767979D01*
X143537043Y-81030068D01*
X143759932Y-81252957D01*
X143800405Y-81280000D01*
X143759932Y-81307043D01*
X143537043Y-81529932D01*
X143361921Y-81792021D01*
X143241294Y-82083239D01*
X143179800Y-82392394D01*
X143179800Y-82707606D01*
X143241294Y-83016761D01*
X143361921Y-83307979D01*
X143537043Y-83570068D01*
X143759932Y-83792957D01*
X143800405Y-83820000D01*
X143759932Y-83847043D01*
X143537043Y-84069932D01*
X143361921Y-84332021D01*
X143241294Y-84623239D01*
X143179800Y-84932394D01*
X143179800Y-85247606D01*
X143241294Y-85556761D01*
X143361921Y-85847979D01*
X143537043Y-86110068D01*
X143759932Y-86332957D01*
X143800405Y-86360000D01*
X143759932Y-86387043D01*
X143537043Y-86609932D01*
X143361921Y-86872021D01*
X143241294Y-87163239D01*
X143179800Y-87472394D01*
X143179800Y-87787606D01*
X143241294Y-88096761D01*
X143361921Y-88387979D01*
X143537043Y-88650068D01*
X143759932Y-88872957D01*
X143800405Y-88900000D01*
X143759932Y-88927043D01*
X143537043Y-89149932D01*
X143361921Y-89412021D01*
X143241294Y-89703239D01*
X143179800Y-90012394D01*
X143179800Y-90327606D01*
X143241294Y-90636761D01*
X143361921Y-90927979D01*
X143537043Y-91190068D01*
X143759932Y-91412957D01*
X143800405Y-91440000D01*
X143759932Y-91467043D01*
X143537043Y-91689932D01*
X143361921Y-91952021D01*
X143241294Y-92243239D01*
X143179800Y-92552394D01*
X143179800Y-92867606D01*
X143241294Y-93176761D01*
X143361921Y-93467979D01*
X143537043Y-93730068D01*
X143759932Y-93952957D01*
X143885101Y-94036592D01*
X143849011Y-94139406D01*
X144780000Y-95070395D01*
X145710989Y-94139406D01*
X145674899Y-94036592D01*
X145800068Y-93952957D01*
X146022957Y-93730068D01*
X146198079Y-93467979D01*
X146318706Y-93176761D01*
X146380200Y-92867606D01*
X146380200Y-92552394D01*
X146318706Y-92243239D01*
X146198079Y-91952021D01*
X146022957Y-91689932D01*
X145800068Y-91467043D01*
X145759595Y-91440000D01*
X145800068Y-91412957D01*
X146022957Y-91190068D01*
X146198079Y-90927979D01*
X146318706Y-90636761D01*
X146380200Y-90327606D01*
X146380200Y-90012394D01*
X146318706Y-89703239D01*
X146198079Y-89412021D01*
X146022957Y-89149932D01*
X145800068Y-88927043D01*
X145759595Y-88900000D01*
X145800068Y-88872957D01*
X146022957Y-88650068D01*
X146198079Y-88387979D01*
X146318706Y-88096761D01*
X146380200Y-87787606D01*
X146380200Y-87693971D01*
X166033330Y-87693971D01*
X166076682Y-88006188D01*
X166180112Y-88303948D01*
X166268562Y-88469428D01*
X166529406Y-88560989D01*
X167460395Y-87630000D01*
X167819605Y-87630000D01*
X168750594Y-88560989D01*
X169011438Y-88469428D01*
X169148851Y-88185744D01*
X169228279Y-87880704D01*
X169246670Y-87566029D01*
X169203318Y-87253812D01*
X169099888Y-86956052D01*
X169011438Y-86790572D01*
X168750594Y-86699011D01*
X167819605Y-87630000D01*
X167460395Y-87630000D01*
X166529406Y-86699011D01*
X166268562Y-86790572D01*
X166131149Y-87074256D01*
X166051721Y-87379296D01*
X166033330Y-87693971D01*
X146380200Y-87693971D01*
X146380200Y-87472394D01*
X146318706Y-87163239D01*
X146198079Y-86872021D01*
X146022957Y-86609932D01*
X145800068Y-86387043D01*
X145759595Y-86360000D01*
X145800068Y-86332957D01*
X146022957Y-86110068D01*
X146198079Y-85847979D01*
X146318706Y-85556761D01*
X146380200Y-85247606D01*
X146380200Y-84932394D01*
X146318706Y-84623239D01*
X146198079Y-84332021D01*
X146022957Y-84069932D01*
X145800068Y-83847043D01*
X145759595Y-83820000D01*
X145800068Y-83792957D01*
X146022957Y-83570068D01*
X146198079Y-83307979D01*
X146318706Y-83016761D01*
X146380200Y-82707606D01*
X146380200Y-82392394D01*
X146318706Y-82083239D01*
X146198079Y-81792021D01*
X146022957Y-81529932D01*
X145800068Y-81307043D01*
X145759595Y-81280000D01*
X145800068Y-81252957D01*
X146022957Y-81030068D01*
X146198079Y-80767979D01*
X146318706Y-80476761D01*
X146380200Y-80167606D01*
X146380200Y-79852394D01*
X146318706Y-79543239D01*
X146198079Y-79252021D01*
X146022957Y-78989932D01*
X145800068Y-78767043D01*
X145759595Y-78740000D01*
X145800068Y-78712957D01*
X146022957Y-78490068D01*
X146198079Y-78227979D01*
X146318706Y-77936761D01*
X146380200Y-77627606D01*
X146380200Y-77312394D01*
X146318706Y-77003239D01*
X146198079Y-76712021D01*
X146022957Y-76449932D01*
X145800068Y-76227043D01*
X145759595Y-76200000D01*
X145800068Y-76172957D01*
X146022957Y-75950068D01*
X146198079Y-75687979D01*
X146318706Y-75396761D01*
X146380200Y-75087606D01*
X146380200Y-74772394D01*
X146318706Y-74463239D01*
X146198079Y-74172021D01*
X146022957Y-73909932D01*
X145800068Y-73687043D01*
X145759595Y-73660000D01*
X145800068Y-73632957D01*
X146022957Y-73410068D01*
X146198079Y-73147979D01*
X146318706Y-72856761D01*
X146380200Y-72547606D01*
X146380200Y-72232394D01*
X166039800Y-72232394D01*
X166039800Y-72547606D01*
X166101294Y-72856761D01*
X166221921Y-73147979D01*
X166397043Y-73410068D01*
X166619932Y-73632957D01*
X166660405Y-73660000D01*
X166619932Y-73687043D01*
X166397043Y-73909932D01*
X166221921Y-74172021D01*
X166101294Y-74463239D01*
X166039800Y-74772394D01*
X166039800Y-75087606D01*
X166101294Y-75396761D01*
X166221921Y-75687979D01*
X166397043Y-75950068D01*
X166619932Y-76172957D01*
X166660405Y-76200000D01*
X166619932Y-76227043D01*
X166397043Y-76449932D01*
X166221921Y-76712021D01*
X166101294Y-77003239D01*
X166039800Y-77312394D01*
X166039800Y-77627606D01*
X166101294Y-77936761D01*
X166221921Y-78227979D01*
X166397043Y-78490068D01*
X166619932Y-78712957D01*
X166660405Y-78740000D01*
X166619932Y-78767043D01*
X166397043Y-78989932D01*
X166221921Y-79252021D01*
X166101294Y-79543239D01*
X166039800Y-79852394D01*
X166039800Y-80167606D01*
X166101294Y-80476761D01*
X166221921Y-80767979D01*
X166397043Y-81030068D01*
X166619932Y-81252957D01*
X166660405Y-81280000D01*
X166619932Y-81307043D01*
X166397043Y-81529932D01*
X166221921Y-81792021D01*
X166101294Y-82083239D01*
X166039800Y-82392394D01*
X166039800Y-82707606D01*
X166101294Y-83016761D01*
X166221921Y-83307979D01*
X166397043Y-83570068D01*
X166619932Y-83792957D01*
X166660405Y-83820000D01*
X166619932Y-83847043D01*
X166397043Y-84069932D01*
X166221921Y-84332021D01*
X166101294Y-84623239D01*
X166039800Y-84932394D01*
X166039800Y-85247606D01*
X166101294Y-85556761D01*
X166221921Y-85847979D01*
X166397043Y-86110068D01*
X166619932Y-86332957D01*
X166745101Y-86416592D01*
X166709011Y-86519406D01*
X167640000Y-87450395D01*
X168570989Y-86519406D01*
X168534899Y-86416592D01*
X168660068Y-86332957D01*
X168882957Y-86110068D01*
X169058079Y-85847979D01*
X169178706Y-85556761D01*
X169240200Y-85247606D01*
X169240200Y-84932394D01*
X169178706Y-84623239D01*
X169058079Y-84332021D01*
X168882957Y-84069932D01*
X168660068Y-83847043D01*
X168619595Y-83820000D01*
X168660068Y-83792957D01*
X168882957Y-83570068D01*
X169058079Y-83307979D01*
X169178706Y-83016761D01*
X169240200Y-82707606D01*
X169240200Y-82392394D01*
X169178706Y-82083239D01*
X169058079Y-81792021D01*
X168882957Y-81529932D01*
X168660068Y-81307043D01*
X168619595Y-81280000D01*
X168660068Y-81252957D01*
X168882957Y-81030068D01*
X169058079Y-80767979D01*
X169178706Y-80476761D01*
X169240200Y-80167606D01*
X169240200Y-79852394D01*
X169178706Y-79543239D01*
X169058079Y-79252021D01*
X168882957Y-78989932D01*
X168660068Y-78767043D01*
X168619595Y-78740000D01*
X168660068Y-78712957D01*
X168882957Y-78490068D01*
X168973206Y-78355000D01*
X177935479Y-78355000D01*
X177955363Y-78384759D01*
X178155241Y-78584637D01*
X178390273Y-78741680D01*
X178651426Y-78849853D01*
X178928665Y-78905000D01*
X179211335Y-78905000D01*
X179488574Y-78849853D01*
X179749727Y-78741680D01*
X179984759Y-78584637D01*
X180184637Y-78384759D01*
X180204521Y-78355000D01*
X184909135Y-78355000D01*
X184923969Y-78382752D01*
X185128286Y-78631714D01*
X185258142Y-78738284D01*
X185044078Y-78943683D01*
X184859990Y-79207239D01*
X184730856Y-79501645D01*
X184699876Y-79629566D01*
X184819223Y-79883000D01*
X186563000Y-79883000D01*
X186563000Y-79863000D01*
X186817000Y-79863000D01*
X186817000Y-79883000D01*
X188560777Y-79883000D01*
X188680124Y-79629566D01*
X188649144Y-79501645D01*
X188520010Y-79207239D01*
X188335922Y-78943683D01*
X188121858Y-78738284D01*
X188251714Y-78631714D01*
X188456031Y-78382752D01*
X188607852Y-78098715D01*
X188701343Y-77790516D01*
X188732911Y-77470000D01*
X188701343Y-77149484D01*
X188607852Y-76841285D01*
X188456031Y-76557248D01*
X188251714Y-76308286D01*
X188119767Y-76200000D01*
X188251714Y-76091714D01*
X188456031Y-75842752D01*
X188607852Y-75558715D01*
X188701343Y-75250516D01*
X188732911Y-74930000D01*
X188701343Y-74609484D01*
X188607852Y-74301285D01*
X188456031Y-74017248D01*
X188397345Y-73945739D01*
X188444494Y-73920537D01*
X188541185Y-73841185D01*
X188620537Y-73744494D01*
X188679502Y-73634180D01*
X188715812Y-73514482D01*
X188728072Y-73390000D01*
X188728072Y-71390000D01*
X188715812Y-71265518D01*
X188679502Y-71145820D01*
X188620537Y-71035506D01*
X188541185Y-70938815D01*
X188444494Y-70859463D01*
X188334180Y-70800498D01*
X188214482Y-70764188D01*
X188090000Y-70751928D01*
X185290000Y-70751928D01*
X185165518Y-70764188D01*
X185045820Y-70800498D01*
X184935506Y-70859463D01*
X184838815Y-70938815D01*
X184759463Y-71035506D01*
X184700498Y-71145820D01*
X184664188Y-71265518D01*
X184651928Y-71390000D01*
X184651928Y-73390000D01*
X184664188Y-73514482D01*
X184700498Y-73634180D01*
X184759463Y-73744494D01*
X184838815Y-73841185D01*
X184935506Y-73920537D01*
X184982655Y-73945739D01*
X184923969Y-74017248D01*
X184909135Y-74045000D01*
X175124521Y-74045000D01*
X175104637Y-74015241D01*
X174904759Y-73815363D01*
X174669727Y-73658320D01*
X174408574Y-73550147D01*
X174131335Y-73495000D01*
X173848665Y-73495000D01*
X173571426Y-73550147D01*
X173310273Y-73658320D01*
X173075241Y-73815363D01*
X172875363Y-74015241D01*
X172855479Y-74045000D01*
X168973206Y-74045000D01*
X168882957Y-73909932D01*
X168660068Y-73687043D01*
X168619595Y-73660000D01*
X168660068Y-73632957D01*
X168882957Y-73410068D01*
X169058079Y-73147979D01*
X169178706Y-72856761D01*
X169240200Y-72547606D01*
X169240200Y-72232394D01*
X169178706Y-71923239D01*
X169058079Y-71632021D01*
X168882957Y-71369932D01*
X168660068Y-71147043D01*
X168397979Y-70971921D01*
X168106761Y-70851294D01*
X167797606Y-70789800D01*
X167482394Y-70789800D01*
X167173239Y-70851294D01*
X166882021Y-70971921D01*
X166619932Y-71147043D01*
X166397043Y-71369932D01*
X166221921Y-71632021D01*
X166101294Y-71923239D01*
X166039800Y-72232394D01*
X146380200Y-72232394D01*
X146318706Y-71923239D01*
X146198079Y-71632021D01*
X146022957Y-71369932D01*
X145800068Y-71147043D01*
X145537979Y-70971921D01*
X145246761Y-70851294D01*
X144937606Y-70789800D01*
X144622394Y-70789800D01*
X144313239Y-70851294D01*
X144022021Y-70971921D01*
X143759932Y-71147043D01*
X143537043Y-71369932D01*
X143361921Y-71632021D01*
X143241294Y-71923239D01*
X143179800Y-72232394D01*
X143179800Y-72547606D01*
X143241294Y-72856761D01*
X143361921Y-73147979D01*
X143537043Y-73410068D01*
X143759932Y-73632957D01*
X143800405Y-73660000D01*
X143759932Y-73687043D01*
X143537043Y-73909932D01*
X143446794Y-74045000D01*
X140834521Y-74045000D01*
X140814637Y-74015241D01*
X140614759Y-73815363D01*
X140379727Y-73658320D01*
X140118574Y-73550147D01*
X139841335Y-73495000D01*
X139558665Y-73495000D01*
X139281426Y-73550147D01*
X139020273Y-73658320D01*
X138785241Y-73815363D01*
X138585363Y-74015241D01*
X138565479Y-74045000D01*
X131944521Y-74045000D01*
X131924637Y-74015241D01*
X131724759Y-73815363D01*
X131489727Y-73658320D01*
X131228574Y-73550147D01*
X130951335Y-73495000D01*
X130668665Y-73495000D01*
X130391426Y-73550147D01*
X130130273Y-73658320D01*
X129895241Y-73815363D01*
X129695363Y-74015241D01*
X129538320Y-74250273D01*
X129430147Y-74511426D01*
X129375000Y-74788665D01*
X129375000Y-75071335D01*
X129381983Y-75106439D01*
X129173422Y-75315000D01*
X113244625Y-75315000D01*
X113235812Y-75225518D01*
X113199502Y-75105820D01*
X113140537Y-74995506D01*
X113061185Y-74898815D01*
X112964494Y-74819463D01*
X112854180Y-74760498D01*
X112781620Y-74738487D01*
X112913475Y-74606632D01*
X112954656Y-74545000D01*
X124416531Y-74545000D01*
X124460000Y-74549281D01*
X124503469Y-74545000D01*
X124503477Y-74545000D01*
X124633490Y-74532195D01*
X124800313Y-74481589D01*
X124954059Y-74399411D01*
X125088817Y-74288817D01*
X125116534Y-74255044D01*
X129363561Y-70008017D01*
X129398665Y-70015000D01*
X129681335Y-70015000D01*
X129958574Y-69959853D01*
X130219727Y-69851680D01*
X130454759Y-69694637D01*
X130654637Y-69494759D01*
X130811680Y-69259727D01*
X130919853Y-68998574D01*
X130975000Y-68721335D01*
X130975000Y-68438665D01*
X130919853Y-68161426D01*
X130811680Y-67900273D01*
X130654637Y-67665241D01*
X130454759Y-67465363D01*
X130219727Y-67308320D01*
X129958574Y-67200147D01*
X129681335Y-67145000D01*
X129398665Y-67145000D01*
X129121426Y-67200147D01*
X128860273Y-67308320D01*
X128625241Y-67465363D01*
X128425363Y-67665241D01*
X128268320Y-67900273D01*
X128160147Y-68161426D01*
X128105000Y-68438665D01*
X128105000Y-68721335D01*
X128111983Y-68756439D01*
X124093422Y-72775000D01*
X112954656Y-72775000D01*
X112913475Y-72713368D01*
X112706632Y-72506525D01*
X112463411Y-72344010D01*
X112193158Y-72232068D01*
X111906260Y-72175000D01*
X111613740Y-72175000D01*
X111326842Y-72232068D01*
X111056589Y-72344010D01*
X110813368Y-72506525D01*
X110606525Y-72713368D01*
X110444010Y-72956589D01*
X110332068Y-73226842D01*
X110275000Y-73513740D01*
X110275000Y-73806260D01*
X110332068Y-74093158D01*
X110444010Y-74363411D01*
X110606525Y-74606632D01*
X110738380Y-74738487D01*
X110665820Y-74760498D01*
X110555506Y-74819463D01*
X110458815Y-74898815D01*
X110379463Y-74995506D01*
X110320498Y-75105820D01*
X110284188Y-75225518D01*
X110271928Y-75350000D01*
X106070000Y-75350000D01*
X106070000Y-70408519D01*
X106396511Y-70897177D01*
X106902823Y-71403489D01*
X107498182Y-71801295D01*
X108159710Y-72075309D01*
X108861984Y-72215000D01*
X109578016Y-72215000D01*
X110280290Y-72075309D01*
X110941818Y-71801295D01*
X111537177Y-71403489D01*
X112043489Y-70897177D01*
X112441295Y-70301818D01*
X112715309Y-69640290D01*
X112855000Y-68938016D01*
X112855000Y-68221984D01*
X112715309Y-67519710D01*
X112441295Y-66858182D01*
X112043489Y-66262823D01*
X111537177Y-65756511D01*
X111048519Y-65430000D01*
X202641481Y-65430000D01*
X202152823Y-65756511D01*
M02*
